# Blender v3.0.1 OBJ File: 'barn.blend'
# www.blender.org
mtllib barn.mtl
o Cube
v -175.000015 106.429367 -214.999985
v 34.418427 114.807625 -148.752136
v 158.220444 59.982433 194.510284
v 34.418427 144.911514 -148.752136
v -51.471874 114.807625 -148.752136
v 45.813953 114.807625 164.651505
v -175.000015 -40.000000 -214.999985
v 45.813953 144.911514 164.651505
v -51.471874 144.911514 -148.752136
v -40.076347 114.807625 164.651505
v 174.999985 39.856457 -215.000015
v -40.076347 144.911514 164.651505
v 174.999985 -40.000000 -215.000015
v -174.999985 39.690147 215.000015
v -174.999985 -40.000000 215.000015
v -158.601212 59.982433 -199.667084
v 175.000015 106.429367 214.999985
v 175.000015 -40.000000 214.999985
v 174.999985 40.000000 -215.000015
v 175.000015 40.000000 214.999985
v -175.000015 40.000000 -214.999985
v -174.999985 40.000000 215.000015
v -0.000009 199.658051 -215.000000
v 0.000009 40.000000 215.000000
v 0.000009 195.050827 215.000000
v 2.064154 196.831131 -2.535960
v -83.275154 -40.000000 -215.000000
v 82.894371 -18.947287 -215.000000
v 82.894371 -40.000000 -215.000000
v -83.275154 -12.481866 -215.000000
v -83.275154 19.034319 -215.000000
v 82.894371 2.105427 -215.000000
v -83.275154 40.000000 -215.000000
v 82.894371 40.000000 -215.000000
v 82.894371 45.000000 -215.000000
v 22.855227 45.000000 -215.000000
v -0.000009 45.000000 -215.000000
v -13.171895 45.000000 -215.000000
v -83.275154 45.000000 -215.000000
v 82.894371 12.481866 -215.000000
v -158.601196 59.982433 140.544403
v -158.601181 54.680328 174.705795
v -152.800858 59.982433 160.453537
v 158.220444 -40.000000 194.510284
v -105.828514 -40.000000 194.510284
v -158.601196 -40.000000 -134.009338
v -158.601212 -40.000000 -194.852905
v 158.220444 -40.000000 194.385101
v -158.601181 -40.000000 194.510284
v 152.305588 59.982433 -159.236572
v 158.220413 55.087353 -194.385101
v 158.220413 54.892906 -182.944061
v 152.827606 59.982433 -187.759644
v 158.220428 54.737000 -173.770203
v 105.447746 -40.000000 -199.667084
v 82.894371 -40.000000 -199.667084
v 158.220428 -40.000000 128.852524
v 158.220413 -40.000000 -199.667084
v -83.275154 -40.000000 -199.667084
v -158.601212 -40.000000 -199.667084
v 158.220428 59.982433 -139.889496
v 152.852997 59.982433 -192.989136
v 152.885422 59.982433 -199.667084
v 158.220413 55.110771 -199.667084
v -152.134933 59.982433 186.908646
v -152.136993 59.982433 194.510284
v -158.322311 54.491264 194.510284
v -152.145767 59.982433 186.478683
v -158.601181 54.251190 194.510284
v -158.601181 54.632126 176.930374
v -83.275154 2.851049 -199.667084
v 82.894371 -2.851049 -199.667084
v 82.894371 -31.460140 -199.667084
v -83.275154 45.000000 -199.667084
v -5.454363 45.000000 -199.667084
v -83.275154 31.460140 -199.667084
v 82.894371 45.000000 -199.667084
v -0.000009 114.807625 -215.000000
v -0.000009 144.911514 -215.000000
v 34.418427 114.807625 -215.000000
v 34.418427 144.911514 -215.000000
v -51.471874 144.911514 -215.000000
v -51.471874 114.807625 -215.000000
v -40.076347 144.911514 215.000000
v -40.076347 114.807625 215.000000
v 0.000009 114.807625 215.000000
v 0.000009 144.911514 215.000000
v 45.813953 114.807625 215.000000
v 45.813953 144.911514 215.000000
v -153.834427 -35.162159 215.000000
v -153.834427 -40.000000 215.000000
v -113.834435 -40.000000 215.000000
v -113.834435 -26.019302 215.000000
v -113.834435 -40.000000 206.681427
v -153.834427 -40.000000 213.146561
v -113.834435 -40.000000 194.510284
v -153.834427 -40.000000 194.510284
v -113.834435 -12.038603 215.000000
v -153.834427 -34.441315 215.000000
v -153.834427 -30.324316 215.000000
v -138.920425 10.287571 215.000000
v -113.834435 10.287571 215.000000
v -153.834427 10.287571 215.000000
v -113.834435 -3.497230 194.510284
v -113.834435 10.287571 194.510284
v -153.834427 10.287571 194.510284
v -118.430710 10.287571 194.510284
vt 0.625000 0.750000
vt 0.375000 1.000000
vt 0.375000 0.750000
vt 0.375000 0.250000
vt 0.375000 0.234882
vt 0.390118 0.234882
vt 0.375000 0.000000
vt 0.418690 0.206310
vt 0.375000 0.206310
vt 0.125000 0.500000
vt 0.136913 0.511713
vt 0.126078 0.515118
vt 0.125000 0.750000
vt 0.125000 0.543690
vt 0.136913 0.738015
vt 0.375000 0.684210
vt 0.440790 0.684210
vt 0.625000 0.500000
vt 0.460994 0.565518
vt 0.375000 0.500000
vt 0.625000 0.250000
vt 0.625000 0.750000
vt 0.643637 0.738015
vt 0.648971 0.738015
vt 0.625000 1.000000
vt 0.625000 0.000000
vt 0.462379 0.206310
vt 0.392371 0.234882
vt 0.405236 0.234882
vt 0.375000 0.565518
vt 0.366085 0.565518
vt 0.366086 0.511713
vt 0.506579 0.684210
vt 0.625000 0.565518
vt 0.559482 0.565518
vt 0.875000 0.750000
vt 0.625000 0.649585
vt 0.625000 0.649585
vt 0.875000 0.596374
vt 0.875000 0.500000
vt 0.875000 0.596374
vt 0.875000 0.500000
vt 0.875000 0.625000
vt 0.625000 0.565518
vt 0.625000 0.500000
vt 0.875000 0.750000
vt 0.875000 0.657724
vt 0.875000 0.657724
vt 0.852867 0.511713
vt 0.863087 0.511713
vt 0.625000 0.125000
vt 0.532149 0.206310
vt 0.625000 0.625000
vt 0.625000 0.588234
vt 0.625000 0.588234
vt 0.388889 0.367080
vt 0.465328 0.409672
vt 0.507920 0.367080
vt 0.388889 0.840328
vt 0.388889 0.882919
vt 0.412611 0.882920
vt 0.757920 0.617080
vt 0.757920 0.500000
vt 0.715328 0.605469
vt 0.587389 0.367080
vt 0.611111 0.409672
vt 0.625000 0.367080
vt 0.611111 0.840328
vt 0.534672 0.840328
vt 0.625000 0.882920
vt 0.715328 0.659672
vt 0.757920 0.750000
vt 0.416642 0.708358
vt 0.434439 0.690561
vt 0.416642 0.690561
vt 0.375000 0.500000
vt 0.235143 0.500000
vt 0.235143 0.616650
vt 0.625000 0.750000
vt 0.764857 0.616650
vt 0.625000 0.500000
vt 0.530285 0.343212
vt 0.520204 0.354796
vt 0.531788 0.343212
vt 0.520204 0.854796
vt 0.596273 0.778727
vt 0.520204 0.778727
vt 0.781788 0.593212
vt 0.653727 0.500000
vt 0.653727 0.721273
vt 0.520204 0.471273
vt 0.625000 0.471273
vt 0.540367 0.343212
vt 0.625000 0.906788
vt 0.625000 0.778727
vt 0.781788 0.750000
vt 0.653727 0.750000
vt 0.366085 0.700320
vt 0.366086 0.684210
vt 0.175086 0.738015
vt 0.136985 0.738015
vt 0.363287 0.511713
vt 0.625000 0.625000
vt 0.625000 0.684210
vt 0.625000 0.684210
vt 0.625000 0.641325
vt 0.625000 0.625000
vt 0.625000 0.625000
vt 0.625000 0.615592
vt 0.539006 0.684210
vt 0.388889 0.409672
vt 0.505848 0.840328
vt 0.492080 0.882920
vt 0.447369 0.840328
vt 0.715328 0.500000
vt 0.715328 0.625286
vt 0.552873 0.409672
vt 0.625000 0.409672
vt 0.625000 0.840328
vt 0.715328 0.750000
vt 0.416642 1.000000
vt 0.625000 1.000000
vt 0.416642 0.999921
vt 0.136913 0.543690
vt 0.136913 0.549408
vt 0.129836 0.543690
vt 0.875000 0.625000
vt 0.875000 0.625000
vt 0.875000 0.625000
vt 0.851573 0.511713
vt 0.863087 0.511913
vt 0.532149 0.234882
vt 0.532149 0.224229
vt 0.235143 0.750000
vt 0.375000 0.750000
vt 0.764857 0.750000
vt 0.764857 0.500000
vt 0.781788 0.500000
vt 0.625000 0.343212
vt 0.520204 0.906788
vt 0.549339 0.906787
vt 0.578474 0.906788
vt 0.327912 0.511713
vt 0.125000 0.515118
vt 0.136913 0.515118
vt 0.625000 0.500000
vt 0.625000 0.745790
vt 0.629235 0.745765
vt 0.416642 0.246239
vt 0.416642 0.250000
vt 0.521439 0.246239
vt 0.521439 0.214675
vt 0.521439 0.218302
vt 0.613056 0.250000
vt 0.416642 0.208358
vt 0.416642 0.214675
vt 0.492712 0.214675
vt 0.520204 0.343212
vt 0.614394 0.760606
vt 0.614799 0.753350
vt 0.614848 0.750000
vt 0.636985 0.738015
vt 0.831712 0.511713
vt 0.748526 0.626474
vt 0.657421 0.733790
vt 0.640837 0.734163
vt 0.668669 0.738015
vt 0.633915 0.734204
vt 0.863087 0.516331
vt 0.858668 0.516332
vt 0.843287 0.515857
vt 0.637797 0.734181
vt 0.633915 0.738015
vt 0.858418 0.516324
vt 0.375000 0.000000
vt 0.625000 0.250000
vt 0.625000 0.000000
vt 0.375000 0.434022
vt 0.625000 0.434022
vt 0.375000 1.000000
vt 0.625000 0.815978
vt 0.375000 0.815978
vt 0.125000 0.750000
vt 0.309022 0.649819
vt 0.125000 0.500000
vt 0.875000 0.500000
vt 0.690978 0.649819
vt 0.875000 0.750000
vt 0.375000 0.360143
vt 0.625000 0.889857
vt 0.375000 0.250000
vt 0.625000 1.000000
vt 0.309022 0.750000
vt 0.309022 0.500000
vt 0.625000 0.360143
vt 0.375000 0.889857
vt 0.690978 0.500000
vt 0.690978 0.750000
vt 0.366085 0.738015
vt 0.625000 0.000000
vt 0.416642 0.000000
vt 0.613850 0.261150
vt 0.416642 0.500000
vt 0.416642 0.559439
vt 0.505941 0.559439
vt 0.416642 0.750000
vt 0.869906 0.505094
vt 0.853400 0.504577
vt 0.613951 0.262561
vt 0.416642 0.458358
vt 0.494059 0.690561
vt 0.416642 0.958358
vt 0.875000 0.750000
vt 0.875000 0.505101
vt 0.870179 0.505102
vt 0.565561 0.559439
vt 0.593777 0.690561
vt 0.593777 0.559439
vt 0.593777 0.620846
vt 0.625000 0.787913
vt 0.614069 0.766425
vt 0.416642 0.496947
vt 0.625000 0.284227
vt 0.840773 0.500000
vt 0.613557 0.249780
vt 0.625000 0.244899
vt 0.632552 0.745745
vt 0.650642 0.745333
vt 0.662913 0.750000
vn 1.0000 0.0000 -0.0000
vn 0.0000 0.0000 1.0000
vn 0.0000 -1.0000 0.0000
vn 0.0000 0.0000 -1.0000
vn -1.0000 0.0000 0.0000
vn 0.6804 0.7327 0.0125
vn -0.6523 0.7578 0.0164
vn 0.0000 1.0000 0.0000
vn -1.0000 -0.0002 0.0000
vn -0.4658 0.8744 0.1357
vn 0.4475 0.8837 -0.1368
vn 0.6743 0.7384 0.0033
vn -0.6639 0.7478 -0.0002
vn 1.0000 0.0001 -0.0000
usemtl Material
s off
f 19/1/1 18/2/1 13/3/1
f 15/4/2 91/5/2 90/6/2
f 18/7/2 93/8/2 92/9/2
f 15/10/3 49/11/3 95/12/3
f 18/13/3 92/14/3 44/15/3
f 13/3/4 29/16/4 28/17/4
f 21/18/4 30/19/4 7/20/4
f 22/21/5 7/20/5 15/4/5
f 11/22/6 52/23/6 54/24/6
f 19/1/1 20/25/1 18/2/1
f 20/26/2 98/27/2 93/8/2
f 15/4/2 99/28/2 100/29/2
f 27/30/3 59/31/3 60/32/3
f 13/3/4 28/17/4 32/33/4
f 21/18/4 33/34/4 31/35/4
f 22/21/5 21/18/5 7/20/5
f 11/22/5 20/36/5 19/1/5
f 80/37/4 81/38/4 19/1/4
f 84/39/2 14/40/2 85/41/2
f 14/40/4 22/42/4 24/43/4
f 14/40/1 21/18/1 22/42/1
f 39/44/4 21/18/4 1/45/4
f 17/46/2 89/47/2 88/48/2
f 70/49/7 14/40/7 69/50/7
f 24/51/2 22/21/2 102/52/2
f 32/33/4 19/1/4 13/3/4
f 11/22/1 17/46/1 20/36/1
f 19/1/2 23/53/2 11/22/2
f 14/40/5 1/45/5 21/18/5
f 83/54/4 1/45/4 82/55/4
f 59/56/1 30/57/1 71/58/1
f 29/59/5 56/60/5 73/61/5
f 75/62/3 74/63/3 38/64/3
f 76/65/1 33/66/1 74/67/1
f 34/68/5 40/69/5 77/70/5
f 36/71/3 77/72/3 75/62/3
f 55/73/2 73/74/2 56/75/2
f 10/76/8 85/77/8 86/78/8
f 8/79/3 87/80/3 12/81/3
f 90/82/1 95/83/1 99/84/1
f 94/85/5 104/86/5 96/87/5
f 101/88/3 106/89/3 107/90/3
f 97/91/1 106/92/1 100/93/1
f 102/94/5 105/95/5 104/86/5
f 102/96/3 107/90/3 105/97/3
f 31/35/4 30/19/4 21/18/4
f 30/19/4 27/30/4 7/20/4
f 55/98/3 56/99/3 29/16/3
f 13/3/3 18/13/3 57/100/3
f 18/13/3 48/101/3 57/100/3
f 55/98/3 29/16/3 13/3/3
f 60/32/3 47/102/3 7/20/3
f 7/20/3 27/30/3 60/32/3
f 81/38/4 79/103/4 23/53/4
f 19/1/4 34/104/4 35/105/4
f 36/106/4 37/107/4 78/108/4
f 35/105/4 36/106/4 80/37/4
f 36/106/4 78/108/4 80/37/4
f 81/38/4 23/53/4 19/1/4
f 35/105/4 80/37/4 19/1/4
f 39/44/4 33/34/4 21/18/4
f 1/45/4 38/109/4 39/44/4
f 32/33/4 40/110/4 19/1/4
f 40/110/4 34/104/4 19/1/4
f 83/54/4 78/108/4 38/109/4
f 78/108/4 37/107/4 38/109/4
f 38/109/4 1/45/4 83/54/4
f 23/53/4 79/103/4 82/55/4
f 1/45/4 23/53/4 82/55/4
f 59/56/1 27/111/1 30/57/1
f 40/69/5 32/112/5 72/113/5
f 32/112/5 28/114/5 72/113/5
f 72/113/5 28/114/5 73/61/5
f 28/114/5 29/59/5 73/61/5
f 39/115/3 38/64/3 74/63/3
f 38/64/3 37/116/3 75/62/3
f 37/116/3 36/71/3 75/62/3
f 76/65/1 71/58/1 31/117/1
f 71/58/1 30/57/1 31/117/1
f 31/117/1 33/66/1 76/65/1
f 33/66/1 39/118/1 74/67/1
f 72/113/5 77/70/5 40/69/5
f 77/70/5 35/119/5 34/68/5
f 36/71/3 35/120/3 77/72/3
f 44/121/5 3/122/5 48/123/5
f 18/7/2 20/26/2 93/8/2
f 96/124/3 45/125/3 94/126/3
f 45/125/3 44/15/3 92/14/3
f 94/126/3 45/125/3 92/14/3
f 44/15/3 48/101/3 18/13/3
f 20/26/2 24/51/2 98/27/2
f 15/4/2 90/6/2 99/28/2
f 84/39/2 87/127/2 25/128/2
f 14/40/2 24/43/2 85/41/2
f 24/43/2 86/129/2 85/41/2
f 84/39/2 25/128/2 14/40/2
f 88/48/2 86/129/2 24/43/2
f 24/43/2 20/36/2 17/46/2
f 25/128/2 87/127/2 89/47/2
f 88/48/2 24/43/2 17/46/2
f 17/46/2 25/128/2 89/47/2
f 70/49/7 42/130/7 14/40/7
f 14/40/7 67/131/7 69/50/7
f 22/21/2 15/4/2 103/132/2
f 15/4/2 100/29/2 103/132/2
f 103/132/2 101/133/2 22/21/2
f 101/133/2 102/52/2 22/21/2
f 102/52/2 98/27/2 24/51/2
f 86/78/8 88/134/8 6/135/8
f 6/135/8 10/76/8 86/78/8
f 89/136/3 87/80/3 8/79/3
f 87/80/3 84/137/3 12/81/3
f 101/88/3 103/138/3 106/89/3
f 106/92/1 103/139/1 100/93/1
f 100/93/1 99/84/1 97/91/1
f 99/84/1 95/83/1 97/91/1
f 92/140/5 93/141/5 94/85/5
f 93/141/5 98/142/5 104/86/5
f 94/85/5 93/141/5 104/86/5
f 98/142/5 102/94/5 104/86/5
f 102/96/3 101/88/3 107/90/3
f 7/20/3 47/102/3 46/143/3
f 95/12/3 91/144/3 15/10/3
f 49/11/3 97/145/3 95/12/3
f 16/146/3 63/147/3 62/148/3
f 97/149/4 49/150/4 106/151/4
f 105/152/4 107/153/4 69/154/4
f 45/155/4 96/156/4 104/157/4
f 90/82/1 91/158/1 95/83/1
f 52/159/9 51/160/9 64/161/9
f 11/22/6 51/162/6 52/23/6
usemtl Material.001
f 14/40/10 42/130/10 41/163/10
f 26/164/6 50/165/6 53/166/6
f 11/22/11 54/24/11 61/167/11
f 11/22/12 23/53/12 63/168/12
f 66/169/13 25/128/13 65/170/13
f 43/171/7 26/164/7 23/53/7
f 41/163/10 43/171/10 1/45/10
f 43/171/10 23/53/10 1/45/10
f 1/45/10 14/40/10 41/163/10
f 61/167/11 50/165/11 17/46/11
f 50/165/11 25/128/11 17/46/11
f 17/46/11 11/22/11 61/167/11
f 23/53/12 26/164/12 53/166/12
f 53/166/12 62/172/12 23/53/12
f 62/172/12 63/168/12 23/53/12
f 64/173/12 51/162/12 11/22/12
f 63/168/12 64/173/12 11/22/12
f 66/169/13 67/131/13 14/40/13
f 25/128/13 26/164/13 65/170/13
f 66/169/13 14/40/13 25/128/13
f 43/171/7 68/174/7 26/164/7
f 68/174/7 65/170/7 26/164/7
f 26/164/6 25/128/6 50/165/6
usemtl Material.002
f 2/175/4 9/176/4 4/177/4
f 9/176/1 83/178/1 82/179/1
f 2/180/5 81/181/5 80/182/5
f 2/183/8 78/184/8 5/185/8
f 9/186/3 79/187/3 4/188/3
f 12/81/1 85/189/1 10/76/1
f 12/81/2 6/135/2 8/79/2
f 6/135/5 89/190/5 8/79/5
f 2/175/4 5/191/4 9/176/4
f 9/176/1 5/191/1 83/178/1
f 2/180/5 4/192/5 81/181/5
f 80/193/8 78/184/8 2/183/8
f 78/184/8 83/194/8 5/185/8
f 12/81/1 84/195/1 85/189/1
f 12/81/2 10/76/2 6/135/2
f 6/135/5 88/196/5 89/190/5
f 82/197/3 79/187/3 9/186/3
f 79/187/3 81/198/3 4/188/3
usemtl Material.003
f 13/3/3 58/199/3 55/98/3
f 45/155/4 3/200/4 44/201/4
f 49/150/1 70/202/1 69/154/1
f 60/203/2 59/204/2 71/205/2
f 52/159/5 64/161/5 58/206/5
f 62/148/3 68/207/3 43/208/3
f 104/157/4 105/152/4 3/200/4
f 42/209/14 70/202/14 46/210/14
f 73/74/2 58/206/2 72/211/2
f 48/123/5 3/122/5 57/212/5
f 3/213/3 66/214/3 65/215/3
f 57/100/3 58/199/3 13/3/3
f 71/205/2 76/216/2 16/146/2
f 16/146/2 60/203/2 71/205/2
f 73/74/2 55/73/2 58/206/2
f 58/206/2 64/161/2 72/211/2
f 64/161/2 63/147/2 77/217/2
f 72/211/2 64/161/2 77/217/2
f 16/146/2 76/216/2 74/218/2
f 74/218/2 75/219/2 16/146/2
f 75/219/2 77/217/2 63/147/2
f 63/147/2 16/146/2 75/219/2
f 3/122/5 61/220/5 54/221/5
f 54/221/5 52/159/5 57/212/5
f 3/122/5 54/221/5 57/212/5
f 49/150/1 46/210/1 70/202/1
f 46/210/1 47/222/1 16/146/1
f 47/222/1 60/203/1 16/146/1
f 46/210/1 16/146/1 42/209/1
f 16/146/1 41/223/1 42/209/1
f 15/10/3 7/20/3 46/143/3
f 46/143/3 49/11/3 15/10/3
f 43/208/3 41/224/3 62/148/3
f 41/224/3 16/146/3 62/148/3
f 49/150/4 69/154/4 106/151/4
f 67/225/4 66/226/4 3/200/4
f 69/154/4 67/225/4 3/200/4
f 106/151/4 69/154/4 107/153/4
f 69/154/4 3/200/4 105/152/4
f 3/200/4 45/155/4 104/157/4
f 68/207/3 62/148/3 53/227/3
f 50/228/3 61/229/3 68/207/3
f 61/229/3 3/213/3 68/207/3
f 68/207/3 3/213/3 65/215/3
f 68/207/3 53/227/3 50/228/3
f 58/206/5 57/212/5 52/159/5
