<?xml version="1.0" encoding="UTF-8" standalone="no"?>
<!-- Created with Inkscape (http://www.inkscape.org/) -->

<svg
   width="64mm"
   height="64mm"
   viewBox="0 0 64 64"
   version="1.1"
   id="svg1"
   inkscape:export-filename="time_bonusr.png"
   inkscape:export-xdpi="101.6"
   inkscape:export-ydpi="101.6"
   inkscape:version="1.3.2 (091e20e, 2023-11-25, custom)"
   sodipodi:docname="clock.svg"
   xmlns:inkscape="http://www.inkscape.org/namespaces/inkscape"
   xmlns:sodipodi="http://sodipodi.sourceforge.net/DTD/sodipodi-0.dtd"
   xmlns="http://www.w3.org/2000/svg"
   xmlns:svg="http://www.w3.org/2000/svg">
  <sodipodi:namedview
     id="namedview1"
     pagecolor="#ffffff"
     bordercolor="#000000"
     borderopacity="0.25"
     inkscape:showpageshadow="2"
     inkscape:pageopacity="0.0"
     inkscape:pagecheckerboard="0"
     inkscape:deskcolor="#d1d1d1"
     inkscape:document-units="mm"
     inkscape:zoom="2.9255612"
     inkscape:cx="6.1526658"
     inkscape:cy="174.83825"
     inkscape:window-width="1920"
     inkscape:window-height="1017"
     inkscape:window-x="-8"
     inkscape:window-y="-8"
     inkscape:window-maximized="1"
     inkscape:current-layer="layer1" />
  <defs
     id="defs1" />
  <g
     inkscape:label="Lag 1"
     inkscape:groupmode="layer"
     id="layer1">
    <path
       style="fill:#4d4d4d;stroke:#270000;stroke-width:0.0853391"
       id="path1"
       sodipodi:type="arc"
       sodipodi:cx="31.982594"
       sodipodi:cy="34.733208"
       sodipodi:rx="27.068739"
       sodipodi:ry="27.068739"
       sodipodi:start="2.3492697"
       sodipodi:end="2.3462488"
       sodipodi:arc-type="arc"
       d="M 12.975106,54.00578 A 27.068739,27.068739 0 0 1 12.695671,15.740281 27.068739,27.068739 0 0 1 50.960949,15.431947 27.068739,27.068739 0 0 1 51.298182,53.696981 27.068739,27.068739 0 0 1 13.033414,54.063112"
       sodipodi:open="true" />
    <path
       style="fill:#550000;stroke:#270000;stroke-width:0.107533"
       id="path2"
       sodipodi:type="arc"
       sodipodi:cx="31.933258"
       sodipodi:cy="34.57473"
       sodipodi:rx="25.342291"
       sodipodi:ry="25.496809"
       sodipodi:start="2.3492697"
       sodipodi:end="2.3462488"
       sodipodi:open="true"
       sodipodi:arc-type="arc"
       d="M 14.138071,52.72811 A 25.342291,25.496809 0 0 1 13.876459,16.684756 25.342291,25.496809 0 0 1 49.701171,16.394328 25.342291,25.496809 0 0 1 50.016895,52.437243 25.342291,25.496809 0 0 1 14.19266,52.782112" />
    <rect
       style="fill:#4d4d4d;stroke:none;stroke-width:0.153862"
       id="rect17"
       width="10.490865"
       height="6.6924481"
       x="26.52109"
       y="2.283572"
       ry="0.94330215" />
    <path
       style="fill:#ffffff;stroke:none;stroke-width:0.0853391"
       id="path3"
       d="m 28.977749,10.600885 c -0.04953,0.381413 -0.08663,0.764204 -0.125839,1.146834 -0.04406,0.443135 -0.06486,0.888141 -0.08364,1.33293 -0.0079,0.249058 -0.01368,0.498175 -0.01637,0.747345 -0.0014,0.160083 -0.0014,0.320174 -0.0011,0.480262 5.7e-5,0.101882 2.9e-5,0.05094 8.8e-5,0.152832 0,0 1.502531,0.765491 1.502531,0.765491 v 0 c -3.5e-5,-0.10195 -5e-6,-0.05097 -8.8e-5,-0.152932 -2.26e-4,-0.160791 -6.78e-4,-0.321584 -0.0028,-0.482363 -0.0033,-0.251344 -0.0084,-0.502699 -0.0061,-0.754077 0.0028,-0.443251 0.01632,-0.886751 0.06379,-1.32778 0.04236,-0.375928 0.07601,-0.755356 0.163027,-1.124106 z" />
    <path
       style="fill:#ffffff;stroke:none;stroke-width:0.0853391"
       id="path4"
       d="m 32.361769,12.560097 c 0.208733,-0.160176 0.413281,-0.229683 0.675616,-0.214394 0.501211,0.282446 1.191729,0.611237 -1.167298,-0.65865 -0.03595,-0.01936 0.06107,0.05446 0.08845,0.08475 0.07753,0.08578 0.08253,0.108476 0.138603,0.209417 0.143507,0.3153 0.205735,0.65798 0.249411,0.999205 0.03866,0.383103 0.04923,0.7676 0.02654,1.151797 -0.02021,0.295985 -0.09279,0.578294 -0.239765,0.835902 -0.104863,0.18328 -0.285948,0.217225 -0.48011,0.236766 -0.04156,0.0025 -0.08308,0.0056 -0.124672,0.0074 -0.03734,0.0016 -0.07472,0.0025 -0.112102,0.0029 -0.02872,2.93e-4 -0.109349,-0.01641 -0.08614,5.19e-4 1.412299,1.029525 0.835479,0.982792 1.496549,1.019233 0.320167,0.02299 0.636497,0.08535 0.954442,0.129609 0.302035,0.02702 0.601877,0.06806 0.903026,0.102497 0,0 -1.338837,-0.996761 -1.338837,-0.996761 v 0 c -0.296962,-0.03557 -0.59434,-0.06437 -0.891387,-0.09897 -0.325253,-0.04731 -0.648927,-0.105009 -0.975135,-0.145867 -0.622967,-0.146356 -0.113224,-0.03862 1.241139,0.97599 0.01576,0.01181 0.03891,-0.0063 0.05849,-0.0083 0.03693,-0.0038 0.07401,-0.006 0.110957,-0.0097 0.04475,-0.0044 0.0894,-0.0099 0.134101,-0.01476 0.23762,-0.04826 0.441152,-0.144064 0.562744,-0.366292 0.149048,-0.284178 0.232305,-0.588549 0.258031,-0.909238 0.02446,-0.393714 0.023,-0.787024 -0.01965,-1.17987 -0.03278,-0.352618 -0.08248,-0.705272 -0.207664,-1.038649 -0.284824,-0.743977 -0.880833,-0.786445 -1.715989,-1.272375 -0.03177,-0.01849 -0.06965,-0.02473 -0.105935,-0.03065 -0.03849,-0.0063 -0.0779,-0.0038 -0.116848,-0.0057 -0.272804,0.03393 -0.513894,0.130234 -0.738962,0.289882 z" />
    <path
       style="fill:#ffffff;stroke:none;stroke-width:0.0853391"
       id="path5"
       d="m 42.025408,13.851699 c 0.01714,0.335331 0.01296,0.671404 0.01221,1.007067 0.0016,0.287733 -0.01434,0.57541 0.01023,0.862428 0.01086,0.09126 0.02122,0.182126 0.02582,0.273901 0,0 1.499977,0.763827 1.499977,0.763827 v 0 c 0.0036,-0.0997 -0.0038,-0.195292 -0.02363,-0.293537 -0.04016,-0.283168 -0.03366,-0.567517 -0.03371,-0.853184 -6.78e-4,-0.33151 -0.0052,-0.663468 0.01221,-0.994627 z" />
    <path
       style="fill:#ffffff;stroke:none;stroke-width:0.0853391"
       id="path6"
       d="m 49.932831,20.076764 c 0.219891,0.06664 0.453359,0.09646 0.665737,0.187235 0.05129,0.02192 0.09876,0.05185 0.148143,0.07778 -0.434049,-0.245108 -0.868098,-0.490215 -1.302146,-0.735323 0.18069,0.140237 0.324516,0.381859 0.213945,0.612314 -0.03108,0.06479 -0.08015,0.119289 -0.120226,0.178932 -0.178055,0.212553 -0.387908,0.394843 -0.614621,0.553626 -0.154116,0.107937 -0.31644,0.187023 -0.458365,0.310583 -0.01535,0.0374 -0.04179,0.07202 -0.04604,0.112224 -0.0047,0.04433 -0.01674,0.107262 0.02023,0.132207 1.107913,0.747986 1.182565,0.858848 2.094057,1.047717 0.06942,0.01691 0.138851,0.03382 0.208276,0.05073 0,0 -1.311241,-1.000614 -1.311241,-1.000614 v 0 c -0.06931,-0.01633 -0.138626,-0.03267 -0.20794,-0.04899 -0.14226,-0.03657 -0.267366,-0.06435 -0.404709,-0.116072 -0.05218,-0.01965 -0.199853,-0.09802 -0.152634,-0.06838 0.436364,0.273849 0.888403,0.522463 1.321278,0.80179 0.02249,0.01451 -0.05478,0.0072 -0.08027,-0.001 -0.01068,-0.0034 -0.01056,-0.01976 -0.01585,-0.02965 0.123477,-0.126626 0.275449,-0.212546 0.415547,-0.320092 0.232002,-0.178097 0.451518,-0.373232 0.647599,-0.590568 0.110957,-0.153777 0.197759,-0.236264 0.236503,-0.425104 0.04228,-0.206078 -0.07577,-0.434002 -0.194973,-0.589552 -1.11908,-0.655224 -1.373452,-0.953556 -2.414543,-1.148196 z" />
    <path
       style="fill:#ffffff;stroke:none;stroke-width:0.0853391"
       id="path7"
       d="m 54.103824,30.973778 c 0.04584,0.01829 0.09147,0.03715 0.137537,0.05487 0.06287,0.02419 0.127092,0.0449 0.189246,0.07088 0.07009,0.02929 0.272636,0.133443 0.207242,0.09479 -2.215646,-1.309577 -1.311767,-0.810387 -0.887292,-0.442787 0.09926,0.11469 0.274991,0.303843 0.199418,0.477867 -0.03326,0.07658 -0.13779,0.144042 -0.196049,0.190076 -0.11597,0.0909 -0.467412,0.187944 -0.482285,0.361586 -0.0036,0.04213 0.01418,0.08337 0.02129,0.125048 0.09616,0.135185 0.23975,0.22435 0.336356,0.359416 0.06848,0.09574 0.07279,0.125206 0.118134,0.235626 0.09857,0.409981 -0.230469,0.676378 -0.517212,0.907365 -0.0547,0.03686 -0.109398,0.07371 -0.164096,0.110575 0,0 1.394433,0.886876 1.394433,0.886876 v 0 c 0.05515,-0.0413 0.110313,-0.0826 0.165467,-0.123901 0.331862,-0.281537 0.675503,-0.596701 0.63066,-1.071458 -0.06842,-0.263256 -0.18351,-0.481224 -0.416924,-0.634202 -0.02336,-6.78e-4 -0.04673,-0.0032 -0.07006,-0.002 -0.0091,4.52e-4 -0.03036,0.01497 -0.02628,0.0069 0.05113,-0.100909 0.346494,-0.189263 0.418548,-0.281611 0.101694,-0.08897 0.201854,-0.159307 0.263929,-0.285442 0.106902,-0.217215 -0.01833,-0.461096 -0.145447,-0.632958 -0.107592,-0.112886 -0.177898,-0.201311 -0.31565,-0.282872 -0.721105,-0.426954 -1.399534,-0.906382 -2.20135,-1.143982 z" />
    <path
       style="fill:#ffffff;stroke:none;stroke-width:0.0853391"
       id="path8"
       d="m 52.06494,40.342381 c 0.07812,0.574855 0.08802,1.15776 0.09736,1.737166 0.0048,0.286398 0.0031,0.572945 -0.01093,0.859072 -9.39e-4,0.02021 6.78e-4,0.177236 -0.02261,0.213219 0.504808,0.251387 0.996765,0.530424 1.514423,0.75416 0.0292,0.01262 0.0084,-0.06309 0.01118,-0.09479 0.004,-0.04735 0.0073,-0.09477 0.009,-0.142256 0.0088,-0.239001 0.0098,-0.478471 0.01711,-0.717559 0.0018,-0.09173 0.01102,-0.601279 -0.07849,-0.659855 -1.42745,-0.934062 -0.937219,-0.925832 -1.657391,-0.899869 -0.41663,0.0073 -0.836698,0.07661 -1.251853,0.02619 -0.593655,-0.228782 -0.365082,-0.148132 1.190569,0.687908 0.03642,0.01958 -0.06988,-0.04653 -0.09596,-0.07862 -0.03011,-0.03703 -0.05197,-0.08075 -0.06967,-0.125067 -0.0498,-0.124706 -0.05773,-0.231194 -0.07777,-0.363179 -0.02143,-0.255921 -0.01156,-0.131039 -0.02978,-0.374636 0,0 -1.485191,-0.739131 -1.485191,-0.739131 v 0 c 0.02817,0.24499 0.0168,0.117916 0.03269,0.381344 0.0182,0.18732 0.02681,0.383167 0.09531,0.56108 0.252825,0.656692 1.099889,0.942359 1.776193,1.034403 0.417731,0.0032 0.836475,-0.05213 1.253511,-0.008 0.59888,0.223461 0.210938,0.08699 -1.219578,-0.769987 -0.02894,-0.01734 0.06207,0.03315 0.08041,0.06146 0.03903,0.06025 0.0631,0.243291 0.06835,0.300668 0.0066,0.0719 0.0062,0.144268 0.0093,0.216402 -0.0064,0.23207 -0.01402,0.462986 -0.03887,0.693971 -0.0046,0.04271 -0.01023,0.08533 -0.01678,0.127793 -0.0038,0.02456 -0.03547,0.06029 -0.01423,0.07318 0.486948,0.295344 0.99726,0.550325 1.495891,0.825488 -0.02545,-0.05784 -0.0226,-0.184871 -0.02568,-0.23655 -0.01743,-0.292766 -0.02432,-0.586019 -0.02625,-0.879272 -0.0071,-0.572245 -0.0086,-1.144493 -0.02116,-1.716688 z" />
    <path
       style="fill:#ffffff;stroke:none;stroke-width:0.0853391"
       id="path9"
       d="m 46.488883,48.782336 c -0.307194,0.02381 -0.634506,-0.01574 -0.931496,0.08706 -0.04863,0.01682 -0.0925,0.0451 -0.138754,0.06766 -0.03732,0.04544 -0.08196,0.08575 -0.111957,0.136329 -0.159721,0.269337 -0.173683,0.677176 -0.151837,0.980791 0.01553,0.04842 0.0241,0.09966 0.04658,0.145277 0.02028,0.04112 0.04106,0.08779 0.08012,0.111778 0.508847,0.312487 1.026536,0.611257 1.553774,0.891604 0.04802,0.02553 0.10871,0.0091 0.161844,0.02063 0.174741,0.03814 0.165642,0.05161 0.317005,0.148635 -2.632167,-1.45161 -1.12314,-0.913968 -1.003727,-0.318416 0.03093,0.154296 0.0033,0.185726 -0.03698,0.335879 -0.194614,0.442351 -0.541672,0.642257 -0.97866,0.793581 -0.225449,0.08184 -0.446106,0.05919 -0.677654,0.03202 0,0 1.333452,0.985936 1.333452,0.985936 v 0 c 0.247356,0.01278 0.486352,0.004 0.718374,-0.09558 0.462761,-0.200249 0.828358,-0.452774 1.053733,-0.921559 0.02461,-0.07112 0.05888,-0.139596 0.07383,-0.213353 0.187097,-0.923424 -1.347277,-1.390962 -1.77453,-1.635792 -0.304802,-0.127487 -0.04556,-0.02837 -0.349013,-0.119785 -0.04927,-0.01483 -0.189598,-0.07739 -0.14606,-0.04997 0.428223,0.269784 0.869781,0.517806 1.303284,0.779029 0.03457,0.02084 -0.07553,-0.03179 -0.106394,-0.0578 -0.03189,-0.02688 -0.05209,-0.06517 -0.07814,-0.09774 -0.01081,-0.05166 -0.02773,-0.102418 -0.03245,-0.154989 -0.01737,-0.193943 0.01553,-0.527818 0.122095,-0.697192 0.01867,-0.02968 0.04926,-0.04991 0.07389,-0.07488 0.331795,-0.128099 0.693179,-0.100159 1.042464,-0.08904 z" />
    <path
       style="fill:#ffffff;stroke:none;stroke-width:0.0853391"
       id="path10"
       d="m 31.451832,53.830621 c -0.0032,0.411578 -0.07893,0.819046 -0.12923,1.226747 -0.02321,0.300768 -0.07778,0.602443 -0.05783,0.905123 0.01099,0.166712 0.02721,0.214329 0.06178,0.373491 0.08118,0.295143 0.297473,0.493902 0.555584,0.643239 0.521907,0.301965 1.047197,0.598049 1.570792,0.897074 0.280939,0.111143 0.583468,0.140095 0.882721,0.152631 0.160314,-0.0079 0.35255,0.01161 0.504631,-0.05445 0.088,-0.03822 0.138014,-0.0953 0.206027,-0.158705 0.138815,-0.178142 0.201929,-0.384765 0.184935,-0.608043 -0.01192,-0.03504 -0.01883,-0.07221 -0.03576,-0.105129 -0.02247,-0.0437 -0.105915,-0.144638 -0.147425,-0.169564 -0.623286,-0.374263 -1.083671,-0.818251 -1.748507,-0.942277 -0.165173,-0.0283 -0.333198,-0.02605 -0.500129,-0.02814 0,0 1.346873,0.985372 1.346873,0.985372 v 0 c 0.162519,0.0087 0.326287,0.01719 0.483299,0.06427 0.526865,0.194152 1.319543,0.754252 -1.140616,-0.697712 -0.03044,-0.01797 0.06423,0.03013 0.09369,0.04967 0.02625,0.01741 0.04793,0.04088 0.07253,0.06056 0.01964,0.01571 0.04011,0.03041 0.06017,0.04562 0.05671,0.162436 0.01538,0.325677 -0.09319,0.458264 -0.187374,0.144881 -0.408148,0.116025 -0.633501,0.109087 -0.287134,-0.02311 -0.573984,-0.06406 -0.83218,-0.20127 0.424448,0.247805 0.848587,0.496144 1.273346,0.743416 0.05003,0.02913 -0.09963,-0.05897 -0.149136,-0.08896 -0.188393,-0.114152 -0.372285,-0.224012 -0.456612,-0.439282 -0.04687,-0.152942 -0.06273,-0.182568 -0.08374,-0.34569 -0.03796,-0.29475 0.01413,-0.59163 0.03566,-0.885492 0.05013,-0.409399 0.117965,-0.81612 0.178916,-1.223963 z" />
    <path
       style="fill:#ffffff;stroke:none;stroke-width:0.0853391"
       id="path11"
       d="m 22.212957,53.143347 c 0.570205,0.199854 1.168282,0.303949 1.752278,0.455412 0.09406,0.0271 0.190667,0.04659 0.282188,0.08132 0.06365,0.02416 0.240342,0.127958 0.18106,0.09449 -0.442624,-0.249901 -0.882059,-0.505791 -1.331172,-0.743833 -0.01865,-0.0099 0.03298,0.0339 0.03146,0.05495 -0.0073,0.09969 -0.136566,0.260507 -0.174932,0.318158 -0.45299,0.579921 -0.995331,1.080409 -1.509764,1.604145 -0.164561,0.162363 -0.33415,0.319463 -0.50374,0.476516 0,0 1.410893,0.866866 1.410893,0.866866 v 0 c 0.160292,-0.165214 0.319979,-0.331037 0.475001,-0.501252 0.50273,-0.547274 1.044499,-1.056708 1.538498,-1.6122 0.0342,-0.04397 0.391966,-0.486871 0.278877,-0.569016 -0.778674,-0.565634 -1.18295,-0.868909 -1.958063,-1.04857 -0.60674,-0.14525 -1.222724,-0.272681 -1.799875,-0.516052 z" />
    <path
       style="fill:#ffffff;stroke:none;stroke-width:0.0853391"
       id="path12"
       d="m 13.367599,44.472195 c -0.201011,0.212239 -0.442003,0.43593 -0.464777,0.748278 -0.005,0.06924 0.01027,0.138451 0.0154,0.207678 0.02756,0.07248 0.04473,0.149813 0.08267,0.217443 0.246549,0.439515 0.908247,0.800267 1.325053,1.061787 0.277485,0.173091 0.550704,0.354222 0.809296,0.554783 0.0455,0.03529 0.260648,0.201592 0.298186,0.273965 0.01344,0.02591 -0.005,0.05817 -0.0075,0.08725 -0.04043,0.04051 -0.0741,0.08914 -0.121294,0.121522 -0.45385,0.311393 -1.099902,0.319966 -1.625296,0.297351 -0.0981,-0.02133 -0.198474,-0.03409 -0.294304,-0.06402 -0.08089,-0.02526 -0.155605,-0.0672 -0.233407,-0.100797 0.411703,0.228324 0.815364,0.471792 1.235109,0.684975 0.04595,0.02334 -0.08137,-0.06702 -0.106729,-0.111887 -0.06183,-0.109394 -0.0036,-0.157008 0.04511,-0.255553 0.429038,-0.461661 1.051555,-0.653309 1.624391,-0.872496 0.348543,-0.172612 0.761858,-0.33352 0.964208,-0.692281 0.106421,-0.188682 0.08348,-0.241479 0.08895,-0.446962 -0.07621,-0.381447 -0.377704,-0.607528 -0.678365,-0.817976 0,0 -1.54058,-0.602363 -1.54058,-0.602363 v 0 c 0.285304,0.17925 0.594953,0.359164 0.742175,0.676755 0.0084,0.05765 0.02896,0.114837 0.02501,0.172951 -0.02949,0.433907 -0.618733,0.651409 -0.941312,0.809771 -0.610529,0.237096 -1.263571,0.458077 -1.719988,0.950419 -0.03862,0.06931 -0.09182,0.132317 -0.115866,0.207928 -0.03371,0.105965 -0.03916,0.304295 0.07754,0.380189 0.164732,0.107125 1.206838,0.871028 1.832937,0.995184 0.09863,0.01955 0.199557,0.02479 0.299336,0.03719 0.541974,-0.0045 1.279039,-0.04737 1.728907,-0.389873 0.06892,-0.05248 0.118072,-0.126787 0.177108,-0.190181 0.02288,-0.07638 0.07913,-0.150104 0.06864,-0.229145 -0.01199,-0.09035 -0.264802,-0.284936 -0.309327,-0.320306 -0.263445,-0.209268 -0.543342,-0.398022 -0.828221,-0.576498 -0.310578,-0.19394 -0.629101,-0.376787 -0.921354,-0.59831 -0.111173,-0.08427 -0.307247,-0.241116 -0.397861,-0.358529 -0.03998,-0.0518 -0.06399,-0.114163 -0.09597,-0.171243 -0.01254,-0.0528 -0.03428,-0.10423 -0.03761,-0.158396 -0.01677,-0.273251 0.232687,-0.471246 0.422112,-0.62432 z" />
    <path
       style="fill:#ffffff;stroke:none;stroke-width:0.0853391"
       id="path13"
       d="m 10.153854,32.187313 c -0.308115,0.08138 -0.6084226,0.205461 -0.8351741,0.437095 -0.056646,0.05787 -0.1034027,0.124646 -0.1551039,0.18697 -0.2105545,0.330484 -0.3279878,0.711348 -0.1459566,1.082698 0.028549,0.05824 0.069056,0.109816 0.103585,0.164725 0.044388,0.04584 0.084637,0.09608 0.1331639,0.137512 0.046657,0.03984 0.0977,0.07486 0.1510569,0.10514 0.5244422,0.297575 1.0478528,0.597442 1.5815968,0.87799 0.04618,0.02428 0.260467,0.05812 0.31571,0.05015 0.0533,-0.0077 0.101027,-0.0373 0.151541,-0.05596 0.09911,-0.08454 0.167027,-0.124658 0.226037,-0.245888 0.107332,-0.220501 0.124972,-0.484834 0.178604,-0.721476 0.428721,0.362982 -0.353919,-0.301344 -1.453119,-0.694163 -0.0641,-0.02291 0.039,0.13089 0.04919,0.19819 0.02116,0.139687 0.03588,0.280474 0.04468,0.421478 0.02796,0.447834 0.0139,0.731376 0.0066,1.185498 -0.03376,0.810615 -0.01488,0.412135 -0.05619,1.195456 0,0 1.378926,0.710372 1.378926,0.710372 v 0 c 0.02898,-0.789311 0.01335,-0.388452 0.04706,-1.202573 0.02393,-0.526046 0.05598,-1.054108 0.06039,-1.580857 5.87e-4,-0.07064 0.05006,-0.170911 -0.0075,-0.211802 -0.476632,-0.338326 -1.002008,-0.603626 -1.520729,-0.873009 -0.02192,-0.01138 -0.01934,0.04547 -0.02901,0.06819 -0.01969,0.216025 -0.03564,0.594413 -0.207486,0.747438 -0.02633,0.02344 -0.06093,0.03548 -0.0914,0.05323 -0.1293727,0.0081 -0.1127216,0.01718 -0.2491576,-0.02165 -0.05036,-0.01434 -0.1926803,-0.07976 -0.1481506,-0.05221 0.4176252,0.258332 0.8498552,0.492384 1.2701932,0.746279 0.05148,0.0311 -0.110959,-0.04724 -0.162955,-0.07748 -0.05197,-0.03021 -0.09858,-0.06882 -0.147868,-0.10323 -0.341379,-0.389263 -0.33468,-0.609241 -0.06867,-1.055799 0.04668,-0.05373 0.08827,-0.11235 0.140039,-0.161189 0.214433,-0.202281 0.515296,-0.311554 0.806906,-0.318097 z" />
    <path
       style="fill:#ffffff;stroke:none;stroke-width:0.0853391"
       id="path14"
       d="m 11.622941,22.282404 c 0.07575,0.527002 0.08183,1.061477 0.0928,1.592924 0.004,0.424298 0.0036,0.217939 0.0016,0.619075 0,0 1.451051,0.737832 1.451051,0.737832 v 0 c -0.0086,-0.406075 -0.005,-0.19774 -0.01062,-0.625011 -0.0058,-0.525636 -0.01217,-1.051277 -0.02573,-1.576785 z" />
    <path
       style="fill:#ffffff;stroke:none;stroke-width:0.0853391"
       id="path15"
       d="m 14.450293,22.146602 c -0.223578,0.449978 -0.410414,0.911845 -0.55382,1.393262 -0.05816,0.38554 -0.131123,0.838657 0.09089,1.190071 0.03254,0.0515 0.07699,0.09443 0.115495,0.14164 0.533778,0.40808 1.356044,1.210631 2.058495,0.917944 0.13941,-0.05809 0.208775,-0.123312 0.32744,-0.2139 0.31681,-0.29852 0.483862,-0.695974 0.598178,-1.107338 0.0955,-0.373628 0.108476,-0.755963 0.03667,-1.133713 -0.07873,-0.224384 -0.03345,-0.116492 -0.134793,-0.324132 0,0 -1.517027,-0.67974 -1.517027,-0.67974 v 0 c 0.11238,0.183941 0.06075,0.08905 0.154666,0.28479 0.104193,0.353596 0.08495,0.706042 0.0088,1.064318 -0.0981,0.376824 -0.241331,0.74638 -0.544983,1.006567 -0.139229,0.09163 -0.265298,0.173568 -0.440212,0.164074 -0.04848,-0.0026 -0.183662,-0.05483 -0.142827,-0.02857 0.866093,0.557026 1.773279,1.00659 1.129161,0.684226 -0.04476,-0.03542 -0.09433,-0.06547 -0.134274,-0.106237 -0.27741,-0.283163 -0.218121,-0.722183 -0.171757,-1.078196 0.129343,-0.469191 0.307042,-0.918961 0.574886,-1.328249 z" />
    <path
       style="fill:#ffffff;stroke:none;stroke-width:0.0853391"
       id="path16"
       d="m 19.171949,15.168735 c -0.05783,0.609163 -0.105051,1.219295 -0.159277,1.828784 -0.02467,0.309961 -0.0504,0.619835 -0.07648,0.929682 0,0 1.449368,0.750528 1.449368,0.750528 v 0 c 0.01487,-0.311562 0.03112,-0.623106 0.06119,-0.933668 0.0513,-0.595881 0.07689,-1.196917 0.208104,-1.782495 z" />
    <path
       style="fill:#ffffff;stroke:none;stroke-width:0.0853391"
       id="path17"
       d="m 21.880486,15.153955 c 0.02508,0.447038 0.02256,0.895104 0.02648,1.34268 0.0096,0.53778 0.0013,1.074313 -0.04113,1.610488 -0.0051,0.05959 -0.01032,0.119178 -0.01547,0.178766 0,0 1.472588,0.762162 1.472588,0.762162 v 0 c 0.0026,-0.06115 0.005,-0.122317 0.0076,-0.183475 0.02274,-0.542544 0.03659,-1.084804 0.02877,-1.627929 0.0038,-0.438574 9.39e-4,-0.877693 0.02648,-1.315693 z" />
  </g>
</svg>
