<?xml version="1.0" encoding="UTF-8" standalone="no"?>
<!-- Created with Inkscape (http://www.inkscape.org/) -->

<svg
   width="100mm"
   height="100mm"
   viewBox="0 0 100 100"
   version="1.1"
   id="svg1"
   xmlns:inkscape="http://www.inkscape.org/namespaces/inkscape"
   xmlns:sodipodi="http://sodipodi.sourceforge.net/DTD/sodipodi-0.dtd"
   xmlns="http://www.w3.org/2000/svg"
   xmlns:svg="http://www.w3.org/2000/svg">
  <sodipodi:namedview
     id="namedview1"
     pagecolor="#ffffff"
     bordercolor="#000000"
     borderopacity="0.25"
     inkscape:showpageshadow="2"
     inkscape:pageopacity="0.0"
     inkscape:pagecheckerboard="0"
     inkscape:deskcolor="#d1d1d1"
     inkscape:document-units="mm" />
  <defs
     id="defs1" />
  <g
     inkscape:label="Lag 1"
     inkscape:groupmode="layer"
     id="layer1">
    <rect
       style="fill:#000000;stroke:#000000;stroke-width:0.426909"
       id="rect1"
       width="99.165855"
       height="99.165855"
       x="0.36927867"
       y="0.52368802"
       ry="17.486835" />
    <rect
       style="fill:#008000;stroke:#000000;stroke-width:0.401095"
       id="rect1-5"
       width="93.169609"
       height="93.169609"
       x="3.6079006"
       y="2.834126"
       ry="16.429462" />
    <path
       sodipodi:type="star"
       style="fill:#00ffff;stroke:#000000;stroke-width:0.306001"
       id="path5"
       inkscape:flatsided="false"
       sodipodi:sides="5"
       sodipodi:cx="33.044117"
       sodipodi:cy="26.404411"
       sodipodi:r1="19.02714"
       sodipodi:r2="9.5135698"
       sodipodi:arg1="0.62402305"
       sodipodi:arg2="1.2523416"
       inkscape:rounded="0"
       inkscape:randomized="0"
       d="M 48.485294,37.522059 36.02281,35.439642 27.242192,44.525386 25.371568,32.029356 14.017153,26.486142 25.323528,20.845587 27.086731,8.3339492 35.94508,17.343924 48.389214,15.154521 42.557599,26.363546 Z"
       inkscape:transform-center-x="1.7928937"
       inkscape:transform-center-y="0.025255749"
       transform="translate(-8.6470589,-5.7132354)" />
    <path
       sodipodi:type="star"
       style="fill:#00ffff;stroke:#000000;stroke-width:0.306001"
       id="path5-6"
       inkscape:flatsided="false"
       sodipodi:sides="5"
       sodipodi:cx="33.044117"
       sodipodi:cy="26.404411"
       sodipodi:r1="19.02714"
       sodipodi:r2="9.5135698"
       sodipodi:arg1="0.62402305"
       sodipodi:arg2="1.2523416"
       inkscape:rounded="0"
       inkscape:randomized="0"
       d="M 48.485294,37.522059 36.02281,35.439642 27.242192,44.525386 25.371568,32.029356 14.017153,26.486142 25.323528,20.845587 27.086731,8.3339492 35.94508,17.343924 48.389214,15.154521 42.557599,26.363546 Z"
       inkscape:transform-center-x="1.7928937"
       inkscape:transform-center-y="0.025255749"
       transform="translate(46.478924,-4.1028004)" />
    <path
       sodipodi:type="star"
       style="fill:#00ffff;stroke:#000000;stroke-width:0.306001"
       id="path5-0"
       inkscape:flatsided="false"
       sodipodi:sides="5"
       sodipodi:cx="33.044117"
       sodipodi:cy="26.404411"
       sodipodi:r1="19.02714"
       sodipodi:r2="9.5135698"
       sodipodi:arg1="0.62402305"
       sodipodi:arg2="1.2523416"
       inkscape:rounded="0"
       inkscape:randomized="0"
       d="M 48.485294,37.522059 36.02281,35.439642 27.242192,44.525386 25.371568,32.029356 14.017153,26.486142 25.323528,20.845587 27.086731,8.3339492 35.94508,17.343924 48.389214,15.154521 42.557599,26.363546 Z"
       inkscape:transform-center-x="1.7928937"
       inkscape:transform-center-y="0.025255749"
       transform="translate(-8.403797,49.368768)" />
    <path
       sodipodi:type="star"
       style="fill:#00ffff;stroke:#000000;stroke-width:0.306001"
       id="path5-1"
       inkscape:flatsided="false"
       sodipodi:sides="5"
       sodipodi:cx="33.044117"
       sodipodi:cy="26.404411"
       sodipodi:r1="19.02714"
       sodipodi:r2="9.5135698"
       sodipodi:arg1="0.62402305"
       sodipodi:arg2="1.2523416"
       inkscape:rounded="0"
       inkscape:randomized="0"
       d="M 48.485294,37.522059 36.02281,35.439642 27.242192,44.525386 25.371568,32.029356 14.017153,26.486142 25.323528,20.845587 27.086731,8.3339492 35.94508,17.343924 48.389214,15.154521 42.557599,26.363546 Z"
       inkscape:transform-center-x="1.7928937"
       inkscape:transform-center-y="0.025255749"
       transform="translate(45.022429,49.498303)" />
    <path
       style="fill:#ffff00;stroke:#000000;stroke-width:0.376331"
       id="path1"
       sodipodi:type="arc"
       sodipodi:cx="52.345562"
       sodipodi:cy="48.63969"
       sodipodi:rx="36.559494"
       sodipodi:ry="35.787323"
       sodipodi:start="2.9834472"
       sodipodi:end="2.974425"
       sodipodi:arc-type="arc"
       d="M 16.242292,54.275731 A 36.559494,35.787323 0 0 1 46.506496,13.311758 36.559494,35.787323 0 0 1 88.422491,42.844282 36.559494,35.787323 0 0 1 58.347374,83.941479 36.559494,35.787323 0 0 1 16.295707,54.594349"
       sodipodi:open="true" />
    <path
       style="fill:#ffffff;stroke:#000000;stroke-width:0.306001"
       id="path2"
       sodipodi:type="arc"
       sodipodi:cx="39.606617"
       sodipodi:cy="36.981617"
       sodipodi:rx="9.3419123"
       sodipodi:ry="9.3419123"
       sodipodi:start="2.9834472"
       sodipodi:end="2.974425"
       sodipodi:open="true"
       sodipodi:arc-type="arc"
       d="m 30.381282,38.452847 a 9.3419123,9.3419123 0 0 1 7.7333,-10.693223 9.3419123,9.3419123 0 0 1 10.710639,7.709161 9.3419123,9.3419123 0 0 1 -7.684983,10.728001 9.3419123,9.3419123 0 0 1 -10.745307,-7.660767" />
    <path
       style="fill:#ffffff;stroke:#000000;stroke-width:0.306001"
       id="path2-9"
       sodipodi:type="arc"
       sodipodi:cx="66.745819"
       sodipodi:cy="36.548786"
       sodipodi:rx="9.3419123"
       sodipodi:ry="9.3419123"
       sodipodi:start="2.9834472"
       sodipodi:end="2.974425"
       sodipodi:open="true"
       sodipodi:arc-type="arc"
       d="m 57.520484,38.020017 a 9.3419123,9.3419123 0 0 1 7.7333,-10.693224 9.3419123,9.3419123 0 0 1 10.710639,7.709161 9.3419123,9.3419123 0 0 1 -7.684983,10.728001 9.3419123,9.3419123 0 0 1 -10.745307,-7.660767" />
    <path
       style="fill:#ffffff;stroke:#000000;stroke-width:0.507849"
       id="path3"
       sodipodi:type="arc"
       sodipodi:cx="-44.73785"
       sodipodi:cy="-69.229691"
       sodipodi:rx="22.537676"
       sodipodi:ry="12.604121"
       sodipodi:start="2.9834472"
       sodipodi:end="0.94478695"
       sodipodi:arc-type="slice"
       d="m -66.994279,-67.244704 a 22.537676,12.604121 0 0 1 15.293172,-13.972449 22.537676,12.604121 0 0 1 27.056575,6.278614 22.537676,12.604121 0 0 1 -6.888144,15.922877 L -44.73785,-69.229691 Z"
       transform="matrix(-0.97199872,0.23498614,-0.11098264,-0.99382235,0,0)" />
    <path
       style="fill:#000000;stroke:#000000;stroke-width:0.206465"
       id="path4"
       sodipodi:type="arc"
       sodipodi:cx="39.375004"
       sodipodi:cy="36.441181"
       sodipodi:rx="4.2191606"
       sodipodi:ry="4.2191629"
       sodipodi:start="2.9834472"
       sodipodi:end="2.974425"
       sodipodi:open="true"
       sodipodi:arc-type="arc"
       d="m 35.208494,37.105645 a 4.2191606,4.2191629 0 0 1 3.49265,-4.829467 4.2191606,4.2191629 0 0 1 4.83733,3.481751 4.2191606,4.2191629 0 0 1 -3.470829,4.845173 4.2191606,4.2191629 0 0 1 -4.852987,-3.459894" />
    <path
       style="fill:#000000;stroke:#000000;stroke-width:0.206465"
       id="path4-9"
       sodipodi:type="arc"
       sodipodi:cx="66.600525"
       sodipodi:cy="35.939381"
       sodipodi:rx="4.2191606"
       sodipodi:ry="4.2191629"
       sodipodi:start="2.9834472"
       sodipodi:end="2.974425"
       sodipodi:open="true"
       sodipodi:arc-type="arc"
       d="m 62.434015,36.603844 a 4.2191606,4.2191629 0 0 1 3.492651,-4.829466 4.2191606,4.2191629 0 0 1 4.837329,3.48175 4.2191606,4.2191629 0 0 1 -3.470829,4.845173 4.2191606,4.2191629 0 0 1 -4.852987,-3.459893" />
  </g>
</svg>
