<?xml version="1.0" encoding="UTF-8" standalone="no"?>
<!-- Created with Inkscape (http://www.inkscape.org/) -->

<svg
   width="22mm"
   height="32mm"
   viewBox="0 0 22 32"
   version="1.1"
   id="svg1"
   inkscape:export-filename="score1.svg"
   inkscape:export-xdpi="96"
   inkscape:export-ydpi="96"
   xmlns:inkscape="http://www.inkscape.org/namespaces/inkscape"
   xmlns:sodipodi="http://sodipodi.sourceforge.net/DTD/sodipodi-0.dtd"
   xmlns="http://www.w3.org/2000/svg"
   xmlns:svg="http://www.w3.org/2000/svg">
  <sodipodi:namedview
     id="namedview1"
     pagecolor="#ffffff"
     bordercolor="#000000"
     borderopacity="0.25"
     inkscape:showpageshadow="2"
     inkscape:pageopacity="0.0"
     inkscape:pagecheckerboard="0"
     inkscape:deskcolor="#d1d1d1"
     inkscape:document-units="mm" />
  <defs
     id="defs1" />
  <g
     inkscape:label="Lag 1"
     inkscape:groupmode="layer"
     id="layer1">
    <rect
       style="fill:#1c0202;fill-opacity:1;stroke:#120101;stroke-width:0.706001;stroke-opacity:1"
       id="rect1"
       width="19.696499"
       height="29.416849"
       x="1.0231941"
       y="1.1510938"
       ry="1.46834" />
    <path
       style="display:none;fill:#ffffff;fill-opacity:1;stroke:#ffffff;stroke-width:2.106;stroke-dasharray:none;stroke-opacity:1"
       d="m 9.3151642,4.0245128 c -0.205061,0.013941 -0.358254,0.1569548 -0.542631,0.2260962 -0.05819,0.02182 -0.12529,0.017425 -0.180877,0.045219 C 8.4756819,4.3538156 8.3850762,4.4532028 8.2751217,4.5219244 8.002259,4.6924637 7.7066594,4.8541405 7.4611753,5.0645554 6.9994276,5.460339 6.5785697,6.0945389 6.2402557,6.6020097 6.1196711,6.7828866 5.9825981,6.9537974 5.8785018,7.1446405 5.5493813,7.7480284 5.3346568,8.4136121 5.0645554,9.0438488 4.9287082,9.3608259 4.7532644,9.6585649 4.6575823,9.9934529 4.5818893,10.258377 4.5492304,10.541474 4.4767052,10.807399 c -0.021357,0.07831 -0.077094,0.14603 -0.090439,0.226097 -0.017346,0.104076 0.00752,0.211291 0,0.316534 -0.040322,0.564513 -0.088937,1.150003 -0.045219,1.718332 0.030379,0.394928 0.1480735,0.782059 0.1808768,1.1757 0.00751,0.09013 -0.016177,0.182336 0,0.271316 0.01452,0.07986 0.075918,0.146234 0.090439,0.226096 0.016179,0.08898 -0.00947,0.181374 0,0.271315 0.044039,0.418372 0.1211707,0.848194 0.1808771,1.266139 0.031467,0.220268 0.1041908,0.412802 0.1356577,0.63307 0.038764,0.271347 0.022302,0.541395 0.090438,0.813946 0.075197,0.300789 0.1650704,0.599257 0.2260963,0.904385 0.023834,0.119163 0.022823,0.242312 0.045219,0.361754 0.090827,0.484413 0.2257213,0.962678 0.3165348,1.447016 0.059141,0.315419 0.1217359,0.634185 0.1808768,0.949604 0.00833,0.04444 -0.00981,0.09152 0,0.135657 0.061691,0.277607 0.165874,0.640781 0.2713154,0.904385 0.020185,0.05046 0.06903,0.08571 0.090439,0.135658 0.024482,0.05712 0.023397,0.122686 0.045219,0.180877 0.1317503,0.351335 0.2913541,0.700495 0.4521922,1.040043 0.2969086,0.626806 0.5812854,1.305887 1.1304812,1.763551 0.1174647,0.09789 0.3202205,0.250547 0.4521925,0.316534 0.085266,0.04263 0.1845297,0.05099 0.2713154,0.09044 0.080012,0.03637 0.1460848,0.09929 0.2260968,0.135657 0.26424,0.12011 0.627543,0.242713 0.904385,0.316537 0.307595,0.08202 0.6378728,0.114078 0.9496038,0.180877 0.107298,0.02299 0.207904,0.07492 0.316535,0.09044 0.208902,0.02984 0.422338,-0.01109 0.633069,0 0.919264,0.04838 1.804668,0.194747 2.622716,-0.316534 0.22678,-0.141737 0.417333,-0.340514 0.63307,-0.497412 0.267755,-0.19473 0.533036,-0.397379 0.768727,-0.63307 0.06825,-0.06825 0.112631,-0.15785 0.180877,-0.226096 0.199046,-0.199046 0.410434,-0.36608 0.58785,-0.58785 0.178003,-0.222503 0.294906,-0.48758 0.452192,-0.723508 0.176578,-0.264867 0.128448,-0.10931 0.271316,-0.452192 0.378806,-0.909139 0.452192,-2.102252 0.452192,-3.074909 0,-0.388577 0.02767,-0.788255 0,-1.1757 -0.03115,-0.436152 -0.07197,-0.370913 -0.135657,-0.859166 -0.02348,-0.179979 -0.02622,-0.362124 -0.04522,-0.542631 -0.04811,-0.456998 -0.153608,-0.90353 -0.226096,-1.356577 -0.02156,-0.134778 -0.01453,-0.273976 -0.04522,-0.406973 -0.06006,-0.260256 -0.156659,-0.510816 -0.226096,-0.768728 -0.237922,-0.883708 -0.38835,-1.798117 -0.678289,-2.667935 -0.183804,-0.551411 -0.437711,-1.080888 -0.633069,-1.627893 -0.208531,-0.583887 0.04516,-0.04535 -0.226097,-0.678288 -0.03983,-0.09294 -0.09936,-0.1769421 -0.135657,-0.2713161 -0.03939,-0.102419 -0.04346,-0.217364 -0.09044,-0.316535 -0.08964,-0.189244 -0.21484,-0.35958 -0.316534,-0.5426304 C 14.499738,8.5182871 14.257634,8.0942539 13.972746,7.6872716 13.862051,7.5291357 13.718066,7.3956894 13.610992,7.2350791 13.543584,7.1339659 13.504209,7.0148666 13.430115,6.9185445 13.352134,6.8171684 13.240107,6.7459584 13.1588,6.6472289 13.02847,6.4889708 12.926328,6.3089332 12.797046,6.1498173 12.729836,6.0670969 12.64225,6.0029433 12.57095,5.923721 12.44182,5.7802433 12.337438,5.6158008 12.209196,5.4715285 11.64557,4.837449 12.387734,5.6952861 11.847442,5.154994 11.79415,5.1017024 11.761412,5.0308351 11.711784,4.9741169 11.442304,4.66614 11.128606,4.4010754 10.807399,4.1601705 10.773293,4.1345905 10.755093,4.088798 10.716961,4.0697319 10.625672,4.0240876 10.536934,4.0249382 10.445645,3.9792936 10.367596,3.9402686 10.259503,3.8606703 10.17433,3.8436359 9.8637812,3.781526 9.5159512,3.7984165 9.1795062,3.7984165"
       id="path3" />
    <path
       style="display:none;fill:#ffffff;fill-opacity:1;stroke:#ffffff;stroke-width:2.106;stroke-dasharray:none;stroke-opacity:1"
       id="path4"
       d="M 6.8839794,9.9888211 C 7.1135964,9.7871054 7.3718512,9.622697 7.615403,9.4390661 7.7003242,9.375038 7.7829248,9.3079889 7.8666855,9.2424503 8.4047678,8.8017166 8.9967497,8.4349824 9.5651112,8.0360506 9.6434226,7.9802462 9.7241158,7.9276421 9.8000454,7.8686379 9.8779525,7.8080967 9.950189,7.7405795 10.026234,7.6777153 10.308353,7.4444949 10.59751,7.220061 10.879126,6.9861739 11.232668,6.6520662 11.624453,6.3619242 12.00654,6.0619187 c 0.06073,-0.043824 0.122781,-0.085863 0.182178,-0.1314725 0.06476,-0.049727 0.125034,-0.1051499 0.190142,-0.1544191 0.256202,-0.1938745 0.533562,-0.3606562 0.819188,-0.5066035 0.146546,-0.057932 0.278709,-0.1500452 0.426694,-0.2047015 0.0269,-0.00994 0.06018,-0.037999 0.08338,-0.021153 0.0254,0.018441 0.04319,0.107534 0.01543,0.092891 -1.126434,-0.5940957 -2.22912,-1.2321688 -3.34368,-1.8482532 0.03018,0.012348 0.06613,0.015428 0.09054,0.037046 0.06943,0.061498 0.138809,0.2208056 0.168564,0.2964024 0.09022,0.229214 0.137678,0.4723643 0.191106,0.7117826 0.02573,0.1074904 0.05502,0.2141881 0.07718,0.3224715 0.02868,0.1402233 0.08852,0.5328171 0.108662,0.6734159 0.0501,0.3496953 0.09153,0.6996813 0.126217,1.0511917 0.05366,0.7279862 0.09438,1.4568632 0.127667,2.1860501 0.03586,0.8750962 0.04279,1.7508219 0.04404,2.6265339 -0.0048,0.706016 0.0084,1.411785 0.02219,2.117613 0.0039,0.200356 2.3e-5,0.401008 0.01151,0.601073 0.01458,0.253981 0.04444,0.506854 0.06666,0.760281 0.08942,1.482728 0.08397,2.968784 0.09769,4.453557 0.0122,0.574062 0.02146,1.148178 0.03213,1.722268 0.0032,0.169685 0.0019,0.339536 0.01029,0.50904 0.0096,0.191642 0.03106,0.382516 0.04372,0.573978 0.01315,0.199002 0.02247,0.39824 0.03371,0.597359 0.08889,1.098927 0.09021,2.200918 0.02753,3.300885 -0.03942,0.431598 -0.01212,0.229614 -0.07608,0.606712 0,0 3.278174,1.691144 3.278174,1.691144 v 0 c -0.02187,-0.443624 -0.0068,-0.210844 -0.04746,-0.698193 -0.101245,-1.125103 -0.173582,-2.252917 -0.177687,-3.383072 -0.0027,-0.194848 -0.0074,-0.389678 -0.0082,-0.584543 -7.67e-4,-0.184889 0.0095,-0.369867 0.0035,-0.554659 -0.0057,-0.175157 -0.02503,-0.349607 -0.03866,-0.524326 -0.04602,-0.590257 -0.09206,-1.180461 -0.13422,-1.771024 -0.112364,-1.489648 -0.233795,-2.983264 -0.173819,-4.478388 0.01965,-0.230965 0.04538,-0.461493 0.05896,-0.692895 0.01145,-0.195162 0.01029,-0.390862 0.01611,-0.586273 0.02059,-0.690483 0.04562,-1.380809 0.06143,-2.071432 0.02694,-0.865727 0.06016,-1.73144 0.04477,-2.59784 -0.0058,-0.7312907 -0.02499,-1.4630586 -0.08602,-2.1920794 C 14.34849,7.6389999 14.318882,7.2853642 14.276427,6.9331606 14.254691,6.7528481 14.209291,6.4489123 14.192246,6.2668776 14.1827,6.1649146 14.17903,6.0624867 14.172424,5.9602912 14.114693,5.5621081 14.053685,5.1639342 14.009697,4.7640493 9.9225662,2.4609659 11.576281,2.1099738 10.031395,3.222507 9.838697,3.3594045 9.645502,3.4955948 9.4501762,3.6287355 9.30532,3.7274743 9.1559609,3.8196834 9.0136238,3.9220198 8.9517454,3.9665087 8.8932712,4.0155505 8.8330949,4.0623159 8.4427601,4.3625814 8.0898732,4.7071748 7.7051354,5.014519 7.5177612,5.1917544 7.3298618,5.3680793 7.1323263,5.5341096 6.7960012,5.8167936 7.0187721,5.6219978 6.6726548,5.8947769 6.6007246,5.9514657 6.5312371,6.0111872 6.4605283,6.0693924 5.9193416,6.4909517 5.3877148,6.9298144 4.7900103,7.2711441 4.4099046,7.4827931 4.0262376,7.7168821 3.5921727,7.795107 Z"
       inkscape:label="path4" />
    <path
       style="fill:#ffffff;fill-opacity:1;stroke:#ffffff;stroke-width:1.72854;stroke-dasharray:none;stroke-opacity:1"
       id="path5"
       d="m 6.6358553,11.39788 c 0.094789,-0.273513 0.291786,-0.490567 0.4811245,-0.702607 0.1576987,-0.162716 0.3332353,-0.313173 0.5199846,-0.442257 0.095719,-0.06616 0.187716,-0.114541 0.28905,-0.171308 C 8.093496,9.9883903 8.2727981,9.9210322 8.4502751,9.8501372 8.5298323,9.8183572 8.6076014,9.7818863 8.6884785,9.7536339 8.8867027,9.684389 9.0997777,9.6348897 9.3024629,9.582994 9.9246565,9.452816 10.561057,9.3813992 11.197168,9.4149727 c 0.122966,0.00649 0.245361,0.021188 0.368043,0.031784 0.49577,0.058527 0.985161,0.1771371 1.444411,0.3749441 0.07197,0.031001 0.141749,0.066888 0.212622,0.1003323 0.0651,0.034259 0.131022,0.066985 0.195289,0.1027769 0.0615,0.03425 0.242978,0.142311 0.181907,0.107294 -0.814879,-0.4672399 -1.627522,-0.9383817 -2.443346,-1.4039706 -0.05914,-0.033749 0.116499,0.070597 0.173146,0.1083729 0.154772,0.1032107 0.19169,0.1377727 0.338287,0.2545467 0.274729,0.2211122 0.513468,0.4861021 0.703731,0.7832815 0.118219,0.1846495 0.146464,0.2572785 0.242248,0.4540785 0.151618,0.36994 0.261236,0.756942 0.307983,1.154614 0.01698,0.144448 0.0534,0.731271 0.06078,0.843317 0.0043,0.687125 -0.07625,1.374861 -0.218706,2.046804 -0.07751,0.365573 -0.140992,0.564548 -0.243009,0.92103 -0.117302,0.434 -0.294782,0.845504 -0.483952,1.251791 -0.0672,0.144344 -0.130537,0.290659 -0.204102,0.43187 -0.181601,0.348587 -0.306444,0.526218 -0.519025,0.857076 -0.449984,0.638662 -0.128446,0.192698 -0.593967,0.812266 -0.305006,0.405938 -0.301537,0.42778 -0.637519,0.802481 -0.1422684,0.158663 -0.4780627,0.497726 -0.6304327,0.653065 -0.3327147,0.304276 -0.6837934,0.601998 -1.0855287,0.812769 -0.1735258,0.09104 -0.224905,0.10105 -0.4027101,0.160748 -0.1671917,0.03822 -0.341929,0.07845 -0.5152055,0.06487 -0.098104,-0.0077 -0.2424911,-0.04725 -0.331991,-0.08554 -0.056171,-0.02403 -0.1081175,-0.05694 -0.1621763,-0.08541 0.8211959,0.465095 1.6404366,0.933659 2.4635875,1.395284 0.062096,0.03483 -0.1232289,-0.07197 -0.1801537,-0.114727 C 9.1774235,22.205681 9.1206649,22.156081 9.0678828,22.102819 8.9324514,21.96616 8.8440545,21.809393 8.7580002,21.640073 8.7082372,21.504419 8.6441929,21.344367 8.6953922,21.198326 c 0.022831,-0.06513 0.058667,-0.09722 0.1025545,-0.149777 0.2329037,-0.217916 0.5269242,-0.276903 0.8306126,-0.326969 0.5079877,-0.05292 0.9794567,0.0771 1.4566097,0.233632 0.306835,0.110913 0.605951,0.245935 0.892157,0.402722 0.07238,0.03965 0.2867,0.16367 0.21519,0.122464 -0.78286,-0.451105 -1.566163,-0.901443 -2.3492451,-1.352164 0.071833,0.04301 0.144199,0.08514 0.2155001,0.129019 0.209591,0.128997 0.415078,0.264417 0.625594,0.392 0.993103,0.601868 2.0112,1.161496 3.017787,1.74053 0.287538,0.144694 0.573865,0.295814 0.872172,0.417832 0.126438,0.05172 0.256223,0.09484 0.384208,0.142599 0.151656,0.05549 0.308125,0.09072 0.466287,0.120542 0.07868,0.01484 0.166922,0.03433 0.247207,0.04042 0.04285,0.0033 0.08593,0.0017 0.128898,0.0026 0.29194,0.0043 0.583777,0.0067 0.875721,0.0077 0.04853,-0.0024 0.09705,-0.005 0.14559,-0.0071 0.121851,-0.0053 0.145956,-0.0017 0.265479,-0.01903 0.136111,-0.01966 0.266406,-0.05923 0.398046,-0.09761 0.240105,-0.05357 0.4772,-0.119164 0.708351,-0.20339 0.160512,-0.0633 0.289044,-0.116071 0.385785,-0.268269 0.01929,-0.03034 0.03327,-0.06376 0.04991,-0.09564 0,0 -2.768514,-1.599718 -2.768514,-1.599718 v 0 c -0.02126,0.02961 -0.0332,0.05113 -0.06184,0.07361 -0.06922,0.05429 -0.161238,0.07826 -0.238763,0.116459 -0.214467,0.08175 -0.436975,0.138704 -0.659574,0.193653 -0.248022,0.05053 -0.50083,0.06648 -0.753781,0.06773 -0.290104,-0.0016 -0.581672,-0.0011 -0.869399,-0.04286 -0.252502,-0.04871 -0.506712,-0.09345 -0.747023,-0.188895 -0.403894,-0.150745 -0.792336,-0.33968 -1.168661,-0.549732 0.783434,0.453252 1.566875,0.906494 2.350305,1.359757 0.07329,0.04241 -0.146761,-0.08453 -0.219909,-0.127191 -0.07184,-0.0419 -0.144111,-0.08312 -0.215071,-0.126507 -0.212463,-0.129909 -0.417619,-0.27158 -0.630394,-0.400996 C 11.714039,20.66763 10.782621,20.126563 9.8477627,19.591486 9.4921313,19.387935 9.1065946,19.240364 8.7142254,19.125755 c -0.08777,-0.02347 -0.1748466,-0.0497 -0.2633111,-0.0704 -0.3514181,-0.08221 -0.7363576,-0.130169 -1.0976148,-0.117618 -0.078417,0.0027 -0.1561505,0.01561 -0.2342258,0.02341 -0.074162,0.01256 -0.149314,0.02024 -0.2224836,0.03766 -0.294107,0.07005 -0.5652801,0.232958 -0.7890344,0.431642 -0.092995,0.109015 -0.1313651,0.135524 -0.1848626,0.269716 -0.087387,0.219198 -0.045558,0.442986 0.027505,0.65892 0.026219,0.06185 0.048853,0.125337 0.078655,0.185538 0.099023,0.200025 0.2274842,0.40057 0.3750182,0.568261 0.7596857,0.863474 2.4490826,0.915018 2.9708145,1.754609 0.0664,0.0175 0.1316807,0.03999 0.1991987,0.0525 0.3266765,0.06052 0.6535445,-0.01597 0.9510235,-0.151345 0.151597,-0.09608 0.217797,-0.133035 0.363965,-0.2487 0.356116,-0.281797 0.653275,-0.628929 0.961735,-0.959638 0.09798,-0.111919 0.198954,-0.221286 0.293937,-0.335759 0.12917,-0.155675 0.480558,-0.617184 0.600136,-0.76715 0.110252,-0.138271 0.22768,-0.270801 0.335685,-0.410834 0.121686,-0.157772 0.482025,-0.671341 0.594991,-0.831194 0.248981,-0.377934 0.320745,-0.478732 0.554242,-0.865502 0.08531,-0.141315 0.175129,-0.280358 0.25006,-0.427442 0.06883,-0.13511 0.123855,-0.276901 0.180434,-0.417584 0.165799,-0.412258 0.17066,-0.461475 0.300515,-0.887614 0.03725,-0.156057 0.07739,-0.311454 0.111763,-0.46817 0.184382,-0.840694 0.295037,-1.694766 0.396121,-2.548733 0.01724,-0.148447 0.04237,-0.296189 0.0517,-0.445341 0.01224,-0.195542 -0.0057,-0.535439 -0.0157,-0.733998 -0.0053,-0.10624 -0.0039,-0.213188 -0.01805,-0.31861 -0.0261,-0.193812 -0.08565,-0.341439 -0.147601,-0.524948 -0.03386,-0.08493 -0.06373,-0.171562 -0.101577,-0.254793 C 15.054391,10.920504 14.790339,10.563949 14.498296,10.23509 14.45042,10.192597 14.23018,9.996032 14.179484,9.9553347 14.1253,9.9118378 14.071932,9.8664031 14.012028,9.8311983 12.994924,9.2334682 11.952348,8.5137091 10.835275,8.0406686 10.643858,7.9731175 10.599864,7.9533244 10.399443,7.9006826 10.018356,7.8005873 9.6260768,7.7465493 9.232398,7.7338989 8.7135915,7.7271409 8.1946352,7.7401076 7.6789198,7.8040037 7.5537181,7.8195156 7.4296776,7.8433079 7.3052595,7.8641939 7.1780343,7.8855518 7.0510904,7.9085519 6.9240057,7.9307307 6.4085205,8.0232021 6.6954049,7.9636635 6.2272441,8.0763816 6.125838,8.100797 6.0230216,8.1197687 5.9227739,8.1485737 5.7172517,8.207628 5.5195003,8.2991951 5.3311085,8.3988196 5.0152821,8.5911859 4.7247127,8.8174744 4.4742992,9.0911553 4.2637304,9.3142641 4.0776931,9.5596902 3.8476972,9.7641038 Z" />
  </g>
</svg>
