<?xml version="1.0" encoding="UTF-8" standalone="no"?>
<!-- Created with Inkscape (http://www.inkscape.org/) -->

<svg
   width="22mm"
   height="32mm"
   viewBox="0 0 22 32"
   version="1.1"
   id="svg1"
   xmlns:inkscape="http://www.inkscape.org/namespaces/inkscape"
   xmlns:sodipodi="http://sodipodi.sourceforge.net/DTD/sodipodi-0.dtd"
   xmlns="http://www.w3.org/2000/svg"
   xmlns:svg="http://www.w3.org/2000/svg">
  <sodipodi:namedview
     id="namedview1"
     pagecolor="#ffffff"
     bordercolor="#000000"
     borderopacity="0.25"
     inkscape:showpageshadow="2"
     inkscape:pageopacity="0.0"
     inkscape:pagecheckerboard="0"
     inkscape:deskcolor="#d1d1d1"
     inkscape:document-units="mm" />
  <defs
     id="defs1" />
  <g
     inkscape:label="Lag 1"
     inkscape:groupmode="layer"
     id="layer1">
    <rect
       style="fill:#1c0202;fill-opacity:1;stroke:#120101;stroke-width:0.706001;stroke-opacity:1"
       id="rect1"
       width="19.696499"
       height="29.416849"
       x="1.0231941"
       y="1.1510938"
       ry="1.46834" />
    <path
       style="fill:none;fill-opacity:1;stroke:#ffffff;stroke-width:2.106;stroke-dasharray:none;stroke-opacity:1"
       d="m 9.3151642,4.0245128 c -0.205061,0.013941 -0.358254,0.1569548 -0.542631,0.2260962 -0.05819,0.02182 -0.12529,0.017425 -0.180877,0.045219 C 8.4756819,4.3538156 8.3850762,4.4532028 8.2751217,4.5219244 8.002259,4.6924637 7.7066594,4.8541405 7.4611753,5.0645554 6.9994276,5.460339 6.5785697,6.0945389 6.2402557,6.6020097 6.1196711,6.7828866 5.9825981,6.9537974 5.8785018,7.1446405 5.5493813,7.7480284 5.3346568,8.4136121 5.0645554,9.0438488 4.9287082,9.3608259 4.7532644,9.6585649 4.6575823,9.9934529 4.5818893,10.258377 4.5492304,10.541474 4.4767052,10.807399 c -0.021357,0.07831 -0.077094,0.14603 -0.090439,0.226097 -0.017346,0.104076 0.00752,0.211291 0,0.316534 -0.040322,0.564513 -0.088937,1.150003 -0.045219,1.718332 0.030379,0.394928 0.1480735,0.782059 0.1808768,1.1757 0.00751,0.09013 -0.016177,0.182336 0,0.271316 0.01452,0.07986 0.075918,0.146234 0.090439,0.226096 0.016179,0.08898 -0.00947,0.181374 0,0.271315 0.044039,0.418372 0.1211707,0.848194 0.1808771,1.266139 0.031467,0.220268 0.1041908,0.412802 0.1356577,0.63307 0.038764,0.271347 0.022302,0.541395 0.090438,0.813946 0.075197,0.300789 0.1650704,0.599257 0.2260963,0.904385 0.023834,0.119163 0.022823,0.242312 0.045219,0.361754 0.090827,0.484413 0.2257213,0.962678 0.3165348,1.447016 0.059141,0.315419 0.1217359,0.634185 0.1808768,0.949604 0.00833,0.04444 -0.00981,0.09152 0,0.135657 0.061691,0.277607 0.165874,0.640781 0.2713154,0.904385 0.020185,0.05046 0.06903,0.08571 0.090439,0.135658 0.024482,0.05712 0.023397,0.122686 0.045219,0.180877 0.1317503,0.351335 0.2913541,0.700495 0.4521922,1.040043 0.2969086,0.626806 0.5812854,1.305887 1.1304812,1.763551 0.1174647,0.09789 0.3202205,0.250547 0.4521925,0.316534 0.085266,0.04263 0.1845297,0.05099 0.2713154,0.09044 0.080012,0.03637 0.1460848,0.09929 0.2260968,0.135657 0.26424,0.12011 0.627543,0.242713 0.904385,0.316537 0.307595,0.08202 0.6378728,0.114078 0.9496038,0.180877 0.107298,0.02299 0.207904,0.07492 0.316535,0.09044 0.208902,0.02984 0.422338,-0.01109 0.633069,0 0.919264,0.04838 1.804668,0.194747 2.622716,-0.316534 0.22678,-0.141737 0.417333,-0.340514 0.63307,-0.497412 0.267755,-0.19473 0.533036,-0.397379 0.768727,-0.63307 0.06825,-0.06825 0.112631,-0.15785 0.180877,-0.226096 0.199046,-0.199046 0.410434,-0.36608 0.58785,-0.58785 0.178003,-0.222503 0.294906,-0.48758 0.452192,-0.723508 0.176578,-0.264867 0.128448,-0.10931 0.271316,-0.452192 0.378806,-0.909139 0.452192,-2.102252 0.452192,-3.074909 0,-0.388577 0.02767,-0.788255 0,-1.1757 -0.03115,-0.436152 -0.07197,-0.370913 -0.135657,-0.859166 -0.02348,-0.179979 -0.02622,-0.362124 -0.04522,-0.542631 -0.04811,-0.456998 -0.153608,-0.90353 -0.226096,-1.356577 -0.02156,-0.134778 -0.01453,-0.273976 -0.04522,-0.406973 -0.06006,-0.260256 -0.156659,-0.510816 -0.226096,-0.768728 -0.237922,-0.883708 -0.38835,-1.798117 -0.678289,-2.667935 -0.183804,-0.551411 -0.437711,-1.080888 -0.633069,-1.627893 -0.208531,-0.583887 0.04516,-0.04535 -0.226097,-0.678288 -0.03983,-0.09294 -0.09936,-0.1769421 -0.135657,-0.2713161 -0.03939,-0.102419 -0.04346,-0.217364 -0.09044,-0.316535 -0.08964,-0.189244 -0.21484,-0.35958 -0.316534,-0.5426304 C 14.499738,8.5182871 14.257634,8.0942539 13.972746,7.6872716 13.862051,7.5291357 13.718066,7.3956894 13.610992,7.2350791 13.543584,7.1339659 13.504209,7.0148666 13.430115,6.9185445 13.352134,6.8171684 13.240107,6.7459584 13.1588,6.6472289 13.02847,6.4889708 12.926328,6.3089332 12.797046,6.1498173 12.729836,6.0670969 12.64225,6.0029433 12.57095,5.923721 12.44182,5.7802433 12.337438,5.6158008 12.209196,5.4715285 11.64557,4.837449 12.387734,5.6952861 11.847442,5.154994 11.79415,5.1017024 11.761412,5.0308351 11.711784,4.9741169 11.442304,4.66614 11.128606,4.4010754 10.807399,4.1601705 10.773293,4.1345905 10.755093,4.088798 10.716961,4.0697319 10.625672,4.0240876 10.536934,4.0249382 10.445645,3.9792936 10.367596,3.9402686 10.259503,3.8606703 10.17433,3.8436359 9.8637812,3.781526 9.5159512,3.7984165 9.1795062,3.7984165"
       id="path3" />
  </g>
</svg>
