<?xml version="1.0" encoding="UTF-8" standalone="no"?>
<!-- Created with Inkscape (http://www.inkscape.org/) -->

<svg
   width="22mm"
   height="32mm"
   viewBox="0 0 22 32"
   version="1.1"
   id="svg1"
   inkscape:export-filename="score0.svg"
   inkscape:export-xdpi="96"
   inkscape:export-ydpi="96"
   xmlns:inkscape="http://www.inkscape.org/namespaces/inkscape"
   xmlns:sodipodi="http://sodipodi.sourceforge.net/DTD/sodipodi-0.dtd"
   xmlns="http://www.w3.org/2000/svg"
   xmlns:svg="http://www.w3.org/2000/svg">
  <sodipodi:namedview
     id="namedview1"
     pagecolor="#ffffff"
     bordercolor="#000000"
     borderopacity="0.25"
     inkscape:showpageshadow="2"
     inkscape:pageopacity="0.0"
     inkscape:pagecheckerboard="0"
     inkscape:deskcolor="#d1d1d1"
     inkscape:document-units="mm" />
  <defs
     id="defs1" />
  <g
     inkscape:label="Lag 1"
     inkscape:groupmode="layer"
     id="layer1">
    <rect
       style="fill:#1c0202;fill-opacity:1;stroke:#120101;stroke-width:0.706001;stroke-opacity:1"
       id="rect1"
       width="19.696499"
       height="29.416849"
       x="1.0231941"
       y="1.1510938"
       ry="1.46834" />
    <path
       style="display:none;fill:#ffffff;fill-opacity:1;stroke:#ffffff;stroke-width:2.106;stroke-dasharray:none;stroke-opacity:1"
       d="m 9.3151642,4.0245128 c -0.205061,0.013941 -0.358254,0.1569548 -0.542631,0.2260962 -0.05819,0.02182 -0.12529,0.017425 -0.180877,0.045219 C 8.4756819,4.3538156 8.3850762,4.4532028 8.2751217,4.5219244 8.002259,4.6924637 7.7066594,4.8541405 7.4611753,5.0645554 6.9994276,5.460339 6.5785697,6.0945389 6.2402557,6.6020097 6.1196711,6.7828866 5.9825981,6.9537974 5.8785018,7.1446405 5.5493813,7.7480284 5.3346568,8.4136121 5.0645554,9.0438488 4.9287082,9.3608259 4.7532644,9.6585649 4.6575823,9.9934529 4.5818893,10.258377 4.5492304,10.541474 4.4767052,10.807399 c -0.021357,0.07831 -0.077094,0.14603 -0.090439,0.226097 -0.017346,0.104076 0.00752,0.211291 0,0.316534 -0.040322,0.564513 -0.088937,1.150003 -0.045219,1.718332 0.030379,0.394928 0.1480735,0.782059 0.1808768,1.1757 0.00751,0.09013 -0.016177,0.182336 0,0.271316 0.01452,0.07986 0.075918,0.146234 0.090439,0.226096 0.016179,0.08898 -0.00947,0.181374 0,0.271315 0.044039,0.418372 0.1211707,0.848194 0.1808771,1.266139 0.031467,0.220268 0.1041908,0.412802 0.1356577,0.63307 0.038764,0.271347 0.022302,0.541395 0.090438,0.813946 0.075197,0.300789 0.1650704,0.599257 0.2260963,0.904385 0.023834,0.119163 0.022823,0.242312 0.045219,0.361754 0.090827,0.484413 0.2257213,0.962678 0.3165348,1.447016 0.059141,0.315419 0.1217359,0.634185 0.1808768,0.949604 0.00833,0.04444 -0.00981,0.09152 0,0.135657 0.061691,0.277607 0.165874,0.640781 0.2713154,0.904385 0.020185,0.05046 0.06903,0.08571 0.090439,0.135658 0.024482,0.05712 0.023397,0.122686 0.045219,0.180877 0.1317503,0.351335 0.2913541,0.700495 0.4521922,1.040043 0.2969086,0.626806 0.5812854,1.305887 1.1304812,1.763551 0.1174647,0.09789 0.3202205,0.250547 0.4521925,0.316534 0.085266,0.04263 0.1845297,0.05099 0.2713154,0.09044 0.080012,0.03637 0.1460848,0.09929 0.2260968,0.135657 0.26424,0.12011 0.627543,0.242713 0.904385,0.316537 0.307595,0.08202 0.6378728,0.114078 0.9496038,0.180877 0.107298,0.02299 0.207904,0.07492 0.316535,0.09044 0.208902,0.02984 0.422338,-0.01109 0.633069,0 0.919264,0.04838 1.804668,0.194747 2.622716,-0.316534 0.22678,-0.141737 0.417333,-0.340514 0.63307,-0.497412 0.267755,-0.19473 0.533036,-0.397379 0.768727,-0.63307 0.06825,-0.06825 0.112631,-0.15785 0.180877,-0.226096 0.199046,-0.199046 0.410434,-0.36608 0.58785,-0.58785 0.178003,-0.222503 0.294906,-0.48758 0.452192,-0.723508 0.176578,-0.264867 0.128448,-0.10931 0.271316,-0.452192 0.378806,-0.909139 0.452192,-2.102252 0.452192,-3.074909 0,-0.388577 0.02767,-0.788255 0,-1.1757 -0.03115,-0.436152 -0.07197,-0.370913 -0.135657,-0.859166 -0.02348,-0.179979 -0.02622,-0.362124 -0.04522,-0.542631 -0.04811,-0.456998 -0.153608,-0.90353 -0.226096,-1.356577 -0.02156,-0.134778 -0.01453,-0.273976 -0.04522,-0.406973 -0.06006,-0.260256 -0.156659,-0.510816 -0.226096,-0.768728 -0.237922,-0.883708 -0.38835,-1.798117 -0.678289,-2.667935 -0.183804,-0.551411 -0.437711,-1.080888 -0.633069,-1.627893 -0.208531,-0.583887 0.04516,-0.04535 -0.226097,-0.678288 -0.03983,-0.09294 -0.09936,-0.1769421 -0.135657,-0.2713161 -0.03939,-0.102419 -0.04346,-0.217364 -0.09044,-0.316535 -0.08964,-0.189244 -0.21484,-0.35958 -0.316534,-0.5426304 C 14.499738,8.5182871 14.257634,8.0942539 13.972746,7.6872716 13.862051,7.5291357 13.718066,7.3956894 13.610992,7.2350791 13.543584,7.1339659 13.504209,7.0148666 13.430115,6.9185445 13.352134,6.8171684 13.240107,6.7459584 13.1588,6.6472289 13.02847,6.4889708 12.926328,6.3089332 12.797046,6.1498173 12.729836,6.0670969 12.64225,6.0029433 12.57095,5.923721 12.44182,5.7802433 12.337438,5.6158008 12.209196,5.4715285 11.64557,4.837449 12.387734,5.6952861 11.847442,5.154994 11.79415,5.1017024 11.761412,5.0308351 11.711784,4.9741169 11.442304,4.66614 11.128606,4.4010754 10.807399,4.1601705 10.773293,4.1345905 10.755093,4.088798 10.716961,4.0697319 10.625672,4.0240876 10.536934,4.0249382 10.445645,3.9792936 10.367596,3.9402686 10.259503,3.8606703 10.17433,3.8436359 9.8637812,3.781526 9.5159512,3.7984165 9.1795062,3.7984165"
       id="path3" />
    <path
       style="fill:#ffffff;fill-opacity:1;stroke:#ffffff;stroke-width:2.106;stroke-dasharray:none;stroke-opacity:1"
       id="path4"
       d="M 6.8839794,9.9888211 C 7.1135964,9.7871054 7.3718512,9.622697 7.615403,9.4390661 7.7003242,9.375038 7.7829248,9.3079889 7.8666855,9.2424503 8.4047678,8.8017166 8.9967497,8.4349824 9.5651112,8.0360506 9.6434226,7.9802462 9.7241158,7.9276421 9.8000454,7.8686379 9.8779525,7.8080967 9.950189,7.7405795 10.026234,7.6777153 10.308353,7.4444949 10.59751,7.220061 10.879126,6.9861739 11.232668,6.6520662 11.624453,6.3619242 12.00654,6.0619187 c 0.06073,-0.043824 0.122781,-0.085863 0.182178,-0.1314725 0.06476,-0.049727 0.125034,-0.1051499 0.190142,-0.1544191 0.256202,-0.1938745 0.533562,-0.3606562 0.819188,-0.5066035 0.146546,-0.057932 0.278709,-0.1500452 0.426694,-0.2047015 0.0269,-0.00994 0.06018,-0.037999 0.08338,-0.021153 0.0254,0.018441 0.04319,0.107534 0.01543,0.092891 -1.126434,-0.5940957 -2.22912,-1.2321688 -3.34368,-1.8482532 0.03018,0.012348 0.06613,0.015428 0.09054,0.037046 0.06943,0.061498 0.138809,0.2208056 0.168564,0.2964024 0.09022,0.229214 0.137678,0.4723643 0.191106,0.7117826 0.02573,0.1074904 0.05502,0.2141881 0.07718,0.3224715 0.02868,0.1402233 0.08852,0.5328171 0.108662,0.6734159 0.0501,0.3496953 0.09153,0.6996813 0.126217,1.0511917 0.05366,0.7279862 0.09438,1.4568632 0.127667,2.1860501 0.03586,0.8750962 0.04279,1.7508219 0.04404,2.6265339 -0.0048,0.706016 0.0084,1.411785 0.02219,2.117613 0.0039,0.200356 2.3e-5,0.401008 0.01151,0.601073 0.01458,0.253981 0.04444,0.506854 0.06666,0.760281 0.08942,1.482728 0.08397,2.968784 0.09769,4.453557 0.0122,0.574062 0.02146,1.148178 0.03213,1.722268 0.0032,0.169685 0.0019,0.339536 0.01029,0.50904 0.0096,0.191642 0.03106,0.382516 0.04372,0.573978 0.01315,0.199002 0.02247,0.39824 0.03371,0.597359 0.08889,1.098927 0.09021,2.200918 0.02753,3.300885 -0.03942,0.431598 -0.01212,0.229614 -0.07608,0.606712 0,0 3.278174,1.691144 3.278174,1.691144 v 0 c -0.02187,-0.443624 -0.0068,-0.210844 -0.04746,-0.698193 -0.101245,-1.125103 -0.173582,-2.252917 -0.177687,-3.383072 -0.0027,-0.194848 -0.0074,-0.389678 -0.0082,-0.584543 -7.67e-4,-0.184889 0.0095,-0.369867 0.0035,-0.554659 -0.0057,-0.175157 -0.02503,-0.349607 -0.03866,-0.524326 -0.04602,-0.590257 -0.09206,-1.180461 -0.13422,-1.771024 -0.112364,-1.489648 -0.233795,-2.983264 -0.173819,-4.478388 0.01965,-0.230965 0.04538,-0.461493 0.05896,-0.692895 0.01145,-0.195162 0.01029,-0.390862 0.01611,-0.586273 0.02059,-0.690483 0.04562,-1.380809 0.06143,-2.071432 0.02694,-0.865727 0.06016,-1.73144 0.04477,-2.59784 -0.0058,-0.7312907 -0.02499,-1.4630586 -0.08602,-2.1920794 C 14.34849,7.6389999 14.318882,7.2853642 14.276427,6.9331606 14.254691,6.7528481 14.209291,6.4489123 14.192246,6.2668776 14.1827,6.1649146 14.17903,6.0624867 14.172424,5.9602912 14.114693,5.5621081 14.053685,5.1639342 14.009697,4.7640493 9.9225662,2.4609659 11.576281,2.1099738 10.031395,3.222507 9.838697,3.3594045 9.645502,3.4955948 9.4501762,3.6287355 9.30532,3.7274743 9.1559609,3.8196834 9.0136238,3.9220198 8.9517454,3.9665087 8.8932712,4.0155505 8.8330949,4.0623159 8.4427601,4.3625814 8.0898732,4.7071748 7.7051354,5.014519 7.5177612,5.1917544 7.3298618,5.3680793 7.1323263,5.5341096 6.7960012,5.8167936 7.0187721,5.6219978 6.6726548,5.8947769 6.6007246,5.9514657 6.5312371,6.0111872 6.4605283,6.0693924 5.9193416,6.4909517 5.3877148,6.9298144 4.7900103,7.2711441 4.4099046,7.4827931 4.0262376,7.7168821 3.5921727,7.795107 Z"
       inkscape:label="path4" />
  </g>
</svg>
